<?xml version="1.0" encoding="utf-8"?>
<!-- Generator: Adobe Illustrator 15.0.0, SVG Export Plug-In  -->
<!DOCTYPE svg PUBLIC "-//W3C//DTD SVG 1.1//EN" "http://www.w3.org/Graphics/SVG/1.1/DTD/svg11.dtd" [
	<!ENTITY ns_flows "http://ns.adobe.com/Flows/1.0/">
]>
<svg version="1.1"
	 xmlns="http://www.w3.org/2000/svg" xmlns:xlink="http://www.w3.org/1999/xlink" xmlns:a="http://ns.adobe.com/AdobeSVGViewerExtensions/3.0/"
	 x="0px" y="0px" width="675px" height="120px" viewBox="42.63 57.81 675 120" enable-background="new 42.63 57.81 675 120"
	 xml:space="preserve">
<defs>
</defs>
<g>
	<defs>
		
			<rect id="SVGID_10_" x="11.73" y="22.97" transform="matrix(0.9935 -0.1137 0.1137 0.9935 -14.2632 11.5812)" width="165.39" height="215.78"/>
	</defs>
	<clipPath id="SVGID_13_">
		<use xlink:href="#SVGID_10_"  overflow="visible"/>
	</clipPath>
	<g clip-path="url(#SVGID_13_)">
		<polygon fill="#A91D40" points="353.83,132.99 52.06,160.53 80.78,132.53 47.73,111.09 353.87,83.15 		"/>
		<g>
			<defs>
				<polygon id="SVGID_12_" points="343.83,133.85 79.17,158.98 78.08,147.39 342.74,122.26 				"/>
			</defs>
			<clipPath id="SVGID_14_">
				<use xlink:href="#SVGID_12_"  overflow="visible"/>
			</clipPath>
			<g clip-path="url(#SVGID_14_)">
				<g>
					
						<line fill="none" stroke="#FFFFFF" stroke-width="1.3693" stroke-miterlimit="10" x1="349.95" y1="129.43" x2="347.22" y2="129.68"/>
					
						<line fill="none" stroke="#FFFFFF" stroke-width="1.3693" stroke-miterlimit="10" stroke-dasharray="5.6002,8.4003" x1="338.86" y1="130.44" x2="78.14" y2="154.3"/>
					
						<line fill="none" stroke="#FFFFFF" stroke-width="1.3693" stroke-miterlimit="10" x1="73.96" y1="154.69" x2="71.23" y2="154.94"/>
				</g>
			</g>
		</g>
		<g>
			<defs>
				<polygon id="SVGID_11_" points="341.5,92.71 76.83,117.84 75.75,106.25 340.41,81.12 				"/>
			</defs>
			<clipPath id="SVGID_15_">
				<use xlink:href="#SVGID_11_"  overflow="visible"/>
			</clipPath>
			<g clip-path="url(#SVGID_15_)">
				<g>
					
						<line fill="none" stroke="#FFFFFF" stroke-width="1.3693" stroke-miterlimit="10" x1="67.99" y1="113.19" x2="70.71" y2="112.94"/>
					
						<line fill="none" stroke="#FFFFFF" stroke-width="1.3693" stroke-miterlimit="10" stroke-dasharray="5.3923,8.0884" x1="78.77" y1="112.21" x2="343.23" y2="88.01"/>
					
						<line fill="none" stroke="#FFFFFF" stroke-width="1.3693" stroke-miterlimit="10" x1="347.25" y1="87.64" x2="349.98" y2="87.39"/>
				</g>
			</g>
		</g>
	</g>
</g>
<g>
	<defs>
		
			<rect id="SVGID_7_" x="152.87" y="11.98" transform="matrix(0.9935 -0.1137 0.1137 0.9935 -11.912 30.8316)" width="223.04" height="215.78"/>
	</defs>
	<clipPath id="SVGID_16_">
		<use xlink:href="#SVGID_7_"  overflow="visible"/>
	</clipPath>
	<g clip-path="url(#SVGID_16_)">
		<polygon fill="#A91D40" points="340.13,118.71 38.36,146.26 67.08,118.26 34.04,96.82 340.17,68.88 		"/>
		<g>
			<defs>
				<polygon id="SVGID_9_" points="330.14,119.58 65.47,144.7 64.38,133.12 329.05,107.99 				"/>
			</defs>
			<clipPath id="SVGID_17_">
				<use xlink:href="#SVGID_9_"  overflow="visible"/>
			</clipPath>
			<g clip-path="url(#SVGID_17_)">
				<g>
					
						<line fill="none" stroke="#FFFFFF" stroke-width="1.3693" stroke-miterlimit="10" x1="336.25" y1="115.16" x2="333.52" y2="115.41"/>
					
						<line fill="none" stroke="#FFFFFF" stroke-width="1.3693" stroke-miterlimit="10" stroke-dasharray="5.6002,8.4002" x1="325.16" y1="116.17" x2="64.44" y2="140.03"/>
					
						<line fill="none" stroke="#FFFFFF" stroke-width="1.3693" stroke-miterlimit="10" x1="60.26" y1="140.41" x2="57.53" y2="140.66"/>
				</g>
			</g>
		</g>
		<g>
			<defs>
				<polygon id="SVGID_8_" points="327.8,78.44 63.14,103.57 62.05,91.98 326.71,66.85 				"/>
			</defs>
			<clipPath id="SVGID_18_">
				<use xlink:href="#SVGID_8_"  overflow="visible"/>
			</clipPath>
			<g clip-path="url(#SVGID_18_)">
				<g>
					
						<line fill="none" stroke="#FFFFFF" stroke-width="1.3693" stroke-miterlimit="10" x1="54.29" y1="98.92" x2="57.02" y2="98.67"/>
					
						<line fill="none" stroke="#FFFFFF" stroke-width="1.3693" stroke-miterlimit="10" stroke-dasharray="5.3923,8.0884" x1="65.07" y1="97.94" x2="329.53" y2="73.74"/>
					
						<line fill="none" stroke="#FFFFFF" stroke-width="1.3693" stroke-miterlimit="10" x1="333.56" y1="73.37" x2="336.29" y2="73.12"/>
				</g>
			</g>
		</g>
	</g>
</g>
<g>
	<defs>
		
			<rect id="SVGID_4_" x="581.17" y="22.97" transform="matrix(-0.9935 -0.1137 0.1137 -0.9935 1308.5494 336.3377)" width="165.39" height="215.78"/>
	</defs>
	<clipPath id="SVGID_19_">
		<use xlink:href="#SVGID_4_"  overflow="visible"/>
	</clipPath>
	<g clip-path="url(#SVGID_19_)">
		<polygon fill="#A91D40" points="404.45,132.99 706.22,160.53 677.51,132.53 710.55,111.09 404.41,83.15 		"/>
		<g>
			<defs>
				<polygon id="SVGID_6_" points="414.45,133.85 679.12,158.98 680.21,147.39 415.54,122.26 				"/>
			</defs>
			<clipPath id="SVGID_20_">
				<use xlink:href="#SVGID_6_"  overflow="visible"/>
			</clipPath>
			<g clip-path="url(#SVGID_20_)">
				<g>
					
						<line fill="none" stroke="#FFFFFF" stroke-width="1.3693" stroke-miterlimit="10" x1="408.34" y1="129.43" x2="411.06" y2="129.68"/>
					
						<line fill="none" stroke="#FFFFFF" stroke-width="1.3693" stroke-miterlimit="10" stroke-dasharray="5.6001,8.4002" x1="419.43" y1="130.44" x2="680.15" y2="154.3"/>
					
						<line fill="none" stroke="#FFFFFF" stroke-width="1.3693" stroke-miterlimit="10" x1="684.33" y1="154.69" x2="687.06" y2="154.94"/>
				</g>
			</g>
		</g>
		<g>
			<defs>
				<polygon id="SVGID_5_" points="416.78,92.71 681.45,117.84 682.54,106.25 417.87,81.12 				"/>
			</defs>
			<clipPath id="SVGID_21_">
				<use xlink:href="#SVGID_5_"  overflow="visible"/>
			</clipPath>
			<g clip-path="url(#SVGID_21_)">
				<g>
					
						<line fill="none" stroke="#FFFFFF" stroke-width="1.3693" stroke-miterlimit="10" x1="690.3" y1="113.19" x2="687.58" y2="112.94"/>
					
						<line fill="none" stroke="#FFFFFF" stroke-width="1.3693" stroke-miterlimit="10" stroke-dasharray="5.3923,8.0884" x1="679.52" y1="112.21" x2="415.06" y2="88.01"/>
					
						<line fill="none" stroke="#FFFFFF" stroke-width="1.3693" stroke-miterlimit="10" x1="411.03" y1="87.64" x2="408.3" y2="87.39"/>
				</g>
			</g>
		</g>
	</g>
</g>
<g>
	<defs>
		
			<rect id="SVGID_1_" x="382.37" y="11.98" transform="matrix(-0.9935 -0.1137 0.1137 -0.9935 970.9601 295.1001)" width="223.05" height="215.78"/>
	</defs>
	<clipPath id="SVGID_22_">
		<use xlink:href="#SVGID_1_"  overflow="visible"/>
	</clipPath>
	<g clip-path="url(#SVGID_22_)">
		<polygon fill="#A91D40" points="418.15,118.72 719.93,146.26 691.2,118.26 724.25,96.82 418.11,68.88 		"/>
		<g>
			<defs>
				<polygon id="SVGID_3_" points="428.15,119.58 692.82,144.7 693.91,133.12 429.24,107.99 				"/>
			</defs>
			<clipPath id="SVGID_23_">
				<use xlink:href="#SVGID_3_"  overflow="visible"/>
			</clipPath>
			<g clip-path="url(#SVGID_23_)">
				<g>
					
						<line fill="none" stroke="#FFFFFF" stroke-width="1.3693" stroke-miterlimit="10" x1="422.03" y1="115.16" x2="424.76" y2="115.41"/>
					
						<line fill="none" stroke="#FFFFFF" stroke-width="1.3693" stroke-miterlimit="10" stroke-dasharray="5.6002,8.4003" x1="433.12" y1="116.17" x2="693.84" y2="140.03"/>
					
						<line fill="none" stroke="#FFFFFF" stroke-width="1.3693" stroke-miterlimit="10" x1="698.02" y1="140.41" x2="700.75" y2="140.66"/>
				</g>
			</g>
		</g>
		<g>
			<defs>
				<polygon id="SVGID_2_" points="430.48,78.44 695.15,103.57 696.24,91.98 431.57,66.85 				"/>
			</defs>
			<clipPath id="SVGID_24_">
				<use xlink:href="#SVGID_2_"  overflow="visible"/>
			</clipPath>
			<g clip-path="url(#SVGID_24_)">
				<g>
					
						<line fill="none" stroke="#FFFFFF" stroke-width="1.3693" stroke-miterlimit="10" x1="704" y1="98.92" x2="701.27" y2="98.67"/>
					
						<line fill="none" stroke="#FFFFFF" stroke-width="1.3693" stroke-miterlimit="10" stroke-dasharray="5.3923,8.0884" x1="693.21" y1="97.94" x2="428.75" y2="73.74"/>
					
						<line fill="none" stroke="#FFFFFF" stroke-width="1.3693" stroke-miterlimit="10" x1="424.72" y1="73.37" x2="422" y2="73.12"/>
				</g>
			</g>
		</g>
	</g>
</g>
<path fill="#A91D40" d="M411.19,96.58c0,17.24-13.98,31.22-31.22,31.22c-17.24,0-31.22-13.98-31.22-31.22
	c0-17.25,13.98-31.22,31.22-31.22C397.21,65.36,411.19,79.33,411.19,96.58z"/>
<g>
	
		<circle fill="none" stroke="#FFFFFF" stroke-width="2.6952" stroke-linecap="round" stroke-miterlimit="9" stroke-dasharray="0,8.2715" cx="379.97" cy="96.58" r="27.65"/>
</g>
<path fill="#FFFFFF" d="M393.06,97.87c-0.87,2.62-1.8,4.85-3.01,6.7c1.94,1.84,4.71,4.27,5.14,4.61l-2.09,2.28
	c-0.44-0.39-3.11-2.77-5-4.51c-2.67,2.86-6.11,4.32-10.04,4.32c-6.4,0-9.61-3.74-9.61-7.86c0-3.88,2.48-6.55,6.65-8.93
	c-2.77-3.15-3.2-4.85-3.2-6.99c0-3.35,2.67-7.23,7.67-7.23c3.98,0,7.04,2.57,7.04,6.31c0,3.06-1.85,5.39-6.79,8.35
	c0.78,0.83,1.75,1.75,2.91,2.81c0,0,3.06,2.91,5.14,4.9c0.97-1.46,1.75-3.11,2.33-4.76h-2.77v-2.86h8.49v2.86H393.06z
	 M385.93,104.91c-2.14-2.04-5.34-5-5.34-5c-1.46-1.31-2.67-2.47-3.64-3.49c-3.45,2.09-4.95,4.08-4.95,6.89
	c0,2.43,1.99,4.95,6.06,4.95C381.32,108.26,383.89,106.95,385.93,104.91z M377.92,93.02c4.17-2.57,5.24-4.22,5.24-6.45
	c0-1.99-1.5-3.49-3.59-3.49c-2.52,0-4.22,1.99-4.22,4.51C375.35,88.99,375.69,90.4,377.92,93.02z"/>
<path fill="#6E0C23" d="M266.24,152.98c0.4-1.94,2.35-2.88,4.68-2.4c1.24,0.26,2.6,0.86,3.31,1.33l0.41-1.96
	c0.14-0.67,0.08-1.28-0.2-1.79c-0.37-0.67-1.15-1.23-2.33-1.48c-1.24-0.26-2.05,0.01-2.55,0.33c0.12,0.19,0.17,0.47,0.11,0.75
	c-0.08,0.39-0.47,0.71-0.94,0.62c-0.52-0.11-0.75-0.56-0.65-1.05c0.21-1.01,1.84-1.96,4.27-1.46c1.42,0.29,2.45,0.94,2.94,1.82
	c0.38,0.64,0.49,1.42,0.3,2.3l-1.4,6.77l1.86,0.39l-0.18,0.85l-2.76-0.57l0.34-1.63c-1.08,0.78-2.68,1.33-4.25,1.01
	C266.92,156.33,265.88,154.69,266.24,152.98z M273.61,154.89l0.47-2.25c-0.92-0.51-2.11-1-3.27-1.25c-2.12-0.44-3.33,0.47-3.6,1.74
	c-0.25,1.21,0.4,2.48,2.29,2.87C271.02,156.32,272.49,155.73,273.61,154.89z"/>
<path fill="#6E0C23" d="M288.57,149.93c-0.08,0.47-0.48,0.8-1,0.71c-0.47-0.08-0.82-0.54-0.76-1.02c-1.02-0.01-2.22,0.91-3.14,2.06
	l-1.12,6.58l2.13,0.36l-0.15,0.86l-5-0.85l0.15-0.86l1.9,0.32l1.55-9.11l-1.9-0.32l0.15-0.86l2.81,0.48l-0.41,2.42
	c1.05-1.29,2.58-2.24,3.7-2.05C288.3,148.82,288.66,149.39,288.57,149.93z"/>
<path fill="#6E0C23" d="M291.57,155.18c-0.33,3.05,1.28,4.93,4.02,5.32c1.46,0.21,2.71-0.12,3.97-0.72l-0.22,0.98
	c-1.15,0.56-2.57,0.78-3.98,0.58c-3.32-0.47-5.25-3.01-4.77-6.43c0.44-3.08,2.94-5.29,5.94-4.86c3.11,0.44,4.49,3.12,4.12,5.78
	c-0.04,0.26-0.09,0.47-0.17,0.62L291.57,155.18z M291.72,154.35l7.97,1.13c0.21-2.27-0.84-4.23-3.35-4.58
	C294.25,150.6,292.29,151.97,291.72,154.35z"/>
<path fill="#6E0C23" d="M320.97,164.77c-0.13,1.31-0.57,2.28-1.27,2.95c-1,0.96-2.49,1.29-4.22,1.13c-1.73-0.17-2.91-0.84-3.45-1.55
	c-0.29-0.34-0.4-0.75-0.37-1.09c0.06-0.61,0.52-0.96,1.04-0.91c0.45,0.04,0.73,0.44,0.68,0.89c-0.03,0.29-0.21,0.56-0.47,0.72
	c0.3,0.42,1.26,0.94,2.76,1.09c1.37,0.13,2.53-0.13,3.35-0.92c0.53-0.53,0.87-1.27,0.97-2.32l0.26-2.65
	c-1.07,0.96-2.47,1.7-4.28,1.52c-2.97-0.29-5.02-2.87-4.72-6.02c0.29-3.02,2.75-5.41,6.01-5.09c1.58,0.15,2.87,1,3.75,2.01
	l0.14-1.44l2.84,0.28l-0.08,0.87l-1.89-0.18L320.97,164.77z M312.25,157.66c-0.26,2.65,1.3,4.87,3.85,5.12
	c1.73,0.17,3.13-0.6,4.24-1.66l0.56-5.75c-0.86-0.98-2.08-1.84-3.76-2.01C314.52,153.11,312.51,155.04,312.25,157.66z"/>
<path fill="#6E0C23" d="M327.64,159.23c-0.12,3.06,1.61,4.83,4.37,5.03c1.47,0.11,2.69-0.31,3.91-0.99l-0.15,0.99
	c-1.1,0.63-2.5,0.96-3.92,0.86c-3.34-0.24-5.45-2.64-5.2-6.09c0.22-3.1,2.56-5.48,5.59-5.26c3.13,0.22,4.69,2.8,4.5,5.48
	c-0.02,0.26-0.06,0.47-0.13,0.63L327.64,159.23z M327.73,158.4l8.03,0.58c0.06-2.27-1.13-4.16-3.66-4.34
	C330,154.48,328.14,155.99,327.73,158.4z"/>
<path fill="#6E0C23" d="M341.53,164.53c-0.16-0.41-0.22-0.86-0.19-1.38l0.41-7.7l-2-0.11l0.05-0.87l2,0.11l0.16-2.93l0.99-0.29
	l-0.18,3.27l3.53,0.19l-0.05,0.87l-3.53-0.19l-0.41,7.59c-0.02,0.42,0.01,0.74,0.13,1.04c0.21,0.51,0.64,0.77,1.36,0.81
	c0.68,0.04,1.36-0.19,2.04-0.55l-0.21,0.97c-0.54,0.29-1.19,0.54-2.09,0.49C342.52,165.8,341.85,165.34,341.53,164.53z"/>
<path fill="#6E0C23" d="M350.74,164.97c-0.17-0.4-0.23-0.85-0.21-1.38l0.31-7.7l-2-0.08l0.04-0.87l2.01,0.08l0.12-2.93l0.99-0.3
	l-0.13,3.27l3.54,0.14l-0.04,0.87l-3.54-0.14l-0.31,7.6c-0.02,0.42,0.02,0.74,0.14,1.04c0.22,0.51,0.66,0.76,1.37,0.79
	c0.69,0.03,1.36-0.21,2.03-0.58l-0.2,0.97c-0.54,0.29-1.19,0.56-2.08,0.52C351.74,166.23,351.07,165.78,350.74,164.97z"/>
<path fill="#6E0C23" d="M358.34,165.41l2.06,0.06l0.25-9.23l-2.06-0.05l0.02-0.87l3.03,0.08l-0.27,10.1l2.06,0.06l-0.02,0.87
	l-5.09-0.14L358.34,165.41z M360.11,150.68c0.01-0.55,0.45-0.99,0.98-0.98c0.53,0.02,0.94,0.48,0.92,1.03
	c-0.01,0.53-0.45,0.96-0.98,0.95C360.51,151.67,360.1,151.2,360.11,150.68z"/>
<path fill="#6E0C23" d="M369.53,157.78c1.04-1.23,2.66-2.37,4.38-2.36c1.45,0.01,2.37,0.6,2.86,1.48c0.33,0.61,0.49,1.43,0.48,2.33
	l-0.07,6.52l1.92,0.02l-0.01,0.87l-4.8-0.05l0.01-0.87l1.9,0.02l0.07-6.38c0.01-0.74-0.07-1.35-0.3-1.82
	c-0.36-0.77-1.1-1.2-2.2-1.21c-1.61-0.02-3.1,1.05-4.19,2.36l-0.07,6.99l1.9,0.02l-0.01,0.87l-4.8-0.05l0.01-0.87l1.93,0.02
	l0.09-9.23l-1.93-0.02l0.01-0.87l2.85,0.03L369.53,157.78z"/>
<path fill="#6E0C23" d="M392.73,167.21c0.01,1.32-0.32,2.32-0.94,3.07c-0.88,1.06-2.33,1.55-4.07,1.57
	c-1.74,0.02-2.99-0.52-3.6-1.17c-0.32-0.31-0.48-0.71-0.49-1.05c0-0.61,0.41-1.01,0.94-1.01c0.45-0.01,0.77,0.36,0.77,0.81
	c0,0.29-0.15,0.58-0.39,0.77c0.35,0.39,1.36,0.8,2.86,0.78c1.37-0.02,2.5-0.4,3.23-1.27c0.47-0.59,0.72-1.36,0.71-2.41l-0.03-2.66
	c-0.97,1.06-2.27,1.95-4.09,1.97c-2.98,0.03-5.3-2.32-5.34-5.48c-0.03-3.03,2.15-5.67,5.42-5.71c1.58-0.02,2.96,0.68,3.95,1.59
	l-0.02-1.45l2.85-0.03l0.01,0.87l-1.9,0.02L392.73,167.21z M383.29,161.08c0.03,2.67,1.82,4.7,4.38,4.67
	c1.74-0.02,3.05-0.93,4.04-2.1l-0.06-5.78c-0.96-0.89-2.26-1.61-3.95-1.59C385.06,156.31,383.26,158.45,383.29,161.08z"/>
<path fill="#6E0C23" d="M404.95,165.34l2.5-0.13l-0.15-15.53l-2.48,0.13l-0.05-0.92l3.66-0.19l6.68,12.98l5.34-13.58l3.61-0.18
	l0.05,0.92l-2.48,0.13l1.42,15.46l2.5-0.13l0.05,0.92l-5.82,0.29l-0.05-0.92l2.29-0.12l-1.27-14.57l-5.37,13.51l-0.42,0.02
	l-6.7-12.92l0.21,14.65l2.29-0.12l0.05,0.92l-5.82,0.29L404.95,165.34z"/>
<path fill="#6E0C23" d="M428.77,161.97c-0.16-1.97,1.44-3.43,3.81-3.62c1.27-0.1,2.74,0.1,3.55,0.35l-0.16-2
	c-0.06-0.68-0.29-1.25-0.69-1.67c-0.55-0.54-1.45-0.86-2.66-0.77c-1.26,0.1-1.97,0.58-2.35,1.04c0.17,0.14,0.3,0.4,0.32,0.69
	c0.03,0.39-0.25,0.81-0.73,0.85c-0.53,0.04-0.87-0.33-0.91-0.83c-0.08-1.03,1.21-2.4,3.68-2.6c1.45-0.12,2.62,0.21,3.33,0.92
	c0.55,0.51,0.87,1.23,0.94,2.12l0.56,6.9l1.9-0.15l0.07,0.87l-2.82,0.23l-0.14-1.66c-0.81,1.05-2.19,2.03-3.8,2.16
	C430.37,165,428.91,163.71,428.77,161.97z M436.38,161.73l-0.18-2.29c-1.03-0.23-2.31-0.37-3.49-0.27
	c-2.16,0.17-3.07,1.39-2.96,2.68c0.1,1.24,1.08,2.27,3,2.12C434.3,163.83,435.54,162.85,436.38,161.73z"/>
<path fill="#6E0C23" d="M448.99,152.96c0.05,0.47-0.25,0.9-0.78,0.95c-0.47,0.05-0.93-0.3-1.01-0.77c-0.98,0.26-1.89,1.47-2.47,2.83
	l0.67,6.64l2.15-0.22l0.09,0.87l-5.04,0.51l-0.09-0.87l1.92-0.19l-0.93-9.19l-1.92,0.19l-0.09-0.87l2.84-0.29l0.25,2.44
	c0.67-1.53,1.89-2.84,3.02-2.96C448.43,151.96,448.93,152.41,448.99,152.96z"/>
<path fill="#6E0C23" d="M459.03,151.77c0.06,0.47-0.24,0.91-0.76,0.97c-0.47,0.06-0.94-0.28-1.02-0.75
	c-0.98,0.28-1.87,1.5-2.42,2.87l0.8,6.63l2.15-0.26l0.1,0.86l-5.03,0.61l-0.1-0.86l1.91-0.23l-1.11-9.17l-1.91,0.23l-0.11-0.86
	l2.83-0.34l0.29,2.44c0.64-1.54,1.83-2.88,2.96-3.01C458.46,150.77,458.96,151.22,459.03,151.77z"/>
<path fill="#6E0C23" d="M462.96,160.55l2.04-0.29l-1.3-9.15l-2.04,0.29l-0.12-0.86l3.01-0.42l1.42,10.01l2.04-0.29l0.12,0.86
	l-5.04,0.71L462.96,160.55z M462.25,145.72c-0.08-0.55,0.28-1.05,0.8-1.13c0.52-0.07,1,0.31,1.08,0.86c0.07,0.52-0.28,1.03-0.8,1.1
	C462.8,146.63,462.32,146.24,462.25,145.72z"/>
<path fill="#6E0C23" d="M471.8,154.71c0.61,3,2.71,4.31,5.44,3.85c1.46-0.25,2.55-0.94,3.57-1.88l0.09,1
	c-0.92,0.88-2.21,1.52-3.61,1.76c-3.31,0.55-5.92-1.28-6.49-4.69c-0.52-3.07,1.2-5.93,4.19-6.43c3.1-0.52,5.22,1.61,5.67,4.26
	c0.04,0.26,0.05,0.47,0.03,0.64L471.8,154.71z M471.69,153.87l7.94-1.33c-0.48-2.22-2.08-3.77-4.58-3.35
	C472.97,149.53,471.52,151.43,471.69,153.87z"/>
<path fill="#6E0C23" d="M484.78,152.4c-0.67-3.12,0.99-6.07,4.17-6.75c1.45-0.31,3,0,4.18,0.73l-1.85-8.62l-2.24,0.48l-0.18-0.85
	l3.2-0.69l3.86,18l1.86-0.4l0.18,0.85l-2.79,0.6l-0.38-1.78c-0.74,1.35-1.93,2.47-3.66,2.84
	C488.23,157.41,485.47,155.63,484.78,152.4z M494.57,153.09l-1.25-5.83c-1.14-0.65-2.61-1.09-4.21-0.74
	c-2.53,0.54-3.9,2.97-3.33,5.65c0.56,2.74,2.76,4.3,5.21,3.77C492.67,155.57,493.81,154.46,494.57,153.09z"/>
<path fill="#FFFFFF" d="M206.93,113.88l2.58-0.23l-1.41-16.13l-2.58,0.23l-0.18-2.02l7.67-0.67l0.18,2.02l-2.79,0.24l1.41,16.17
	l6.99-0.61l-0.27-3.1l2.18-0.19l0.45,5.09l-14.05,1.23L206.93,113.88z"/>
<path fill="#FFFFFF" d="M223.16,107.92c-0.32-3.68,2.07-7.01,6.12-7.37c4.05-0.35,6.99,2.48,7.31,6.19
	c0.33,3.71-2.07,7.01-6.12,7.37C226.39,114.47,223.49,111.66,223.16,107.92z M234.39,106.94c-0.25-2.88-2.27-4.78-4.94-4.54
	c-2.67,0.23-4.33,2.45-4.08,5.33c0.25,2.91,2.27,4.78,4.94,4.54C232.98,112.04,234.64,109.85,234.39,106.94z"/>
<path fill="#FFFFFF" d="M241.61,111.38c-0.46-0.67-0.75-1.57-0.85-2.61l-0.62-7.02l-2.08,0.18l-0.16-1.87l4.2-0.37l0.74,8.5
	c0.06,0.74,0.24,1.31,0.52,1.72c0.47,0.73,1.17,1.01,2.24,0.92c1.63-0.14,2.98-1.31,4.09-2.68l-0.63-7.18l-2.15,0.19l-0.17-1.87
	l4.26-0.37l0.98,11.23l2.08-0.18l0.16,1.84l-4.14,0.36l-0.21-2.42c-1.1,1.55-2.77,2.93-4.64,3.09
	C243.54,112.97,242.35,112.42,241.61,111.38z"/>
<path fill="#FFFFFF" d="M256.36,109.74l2.21-0.19l-0.82-9.36l-2.21,0.19l-0.16-1.87l4.32-0.38l0.98,11.23l2.21-0.19l0.16,1.84
	l-6.53,0.57L256.36,109.74z M256.23,93.38c-0.08-0.92,0.65-1.79,1.57-1.87c0.89-0.08,1.73,0.65,1.81,1.57
	c0.08,0.92-0.65,1.76-1.54,1.83C257.14,95,256.31,94.29,256.23,93.38z"/>
<path fill="#FFFFFF" d="M273.28,101c-0.8,0.07-1.46-0.43-1.53-1.23c-0.02-0.22-0.01-0.49,0.09-0.75c-0.49-0.27-1.36-0.35-2.34-0.26
	c-1.81,0.16-2.77,1.2-2.69,2.15c0.1,1.13,1.33,1.43,3.53,1.79c2.7,0.41,4.97,0.96,5.19,3.5c0.22,2.48-2.08,4.14-4.87,4.38
	c-1.9,0.17-3.89-0.28-4.86-1.09c-0.5-0.42-0.79-0.92-0.85-1.56c-0.07-0.77,0.43-1.49,1.19-1.56c0.83-0.07,1.46,0.43,1.53,1.23
	c0.03,0.28-0.05,0.53-0.14,0.82c0.46,0.3,1.57,0.6,2.98,0.48c1.78-0.16,3.12-1.05,3.01-2.31c-0.1-1.2-1.37-1.55-3.28-1.85
	c-3.23-0.52-5.26-1.08-5.47-3.51c-0.17-1.96,1.51-3.93,4.64-4.21c1.75-0.15,3.36,0.26,4.23,0.99c0.5,0.42,0.76,0.89,0.81,1.44
	C274.51,100.31,274.01,100.94,273.28,101z"/>
<path fill="#FFFFFF" d="M280.05,103.56c0.56,2.86,2.58,4.1,5.4,3.85c1.75-0.15,3.02-0.82,4.48-1.84l0,2.07
	c-1.28,0.95-2.93,1.52-4.58,1.67c-4.17,0.36-7.21-2.15-7.55-6.14c-0.32-3.62,1.83-7.02,5.82-7.37c3.9-0.34,6.24,2.39,6.52,5.64
	c0.04,0.49,0.05,0.89-0.02,1.24L280.05,103.56z M279.93,101.87l8.01-0.7c-0.35-2.29-1.81-3.77-4.3-3.55
	C281.65,97.8,280.02,99.36,279.93,101.87z"/>
<path fill="#FFFFFF" d="M461.34,105.88l2.58,0.23l1.41-16.13l-2.58-0.23l0.18-2.03l7.67,0.67c4.45,0.39,7.14,2.88,6.82,6.5
	c-0.24,2.76-2.19,4.54-4.81,5.14l3.64,7.15l2.42,0.21l-0.18,2.03l-3.99-0.35l-4.25-8.69c-0.37,0-0.77-0.01-1.17-0.04
	c-0.8-0.07-1.75-0.18-2.33-0.27l-0.55,6.23l2.64,0.23l-0.18,2.02l-7.51-0.66L461.34,105.88z M475.12,94.75
	c0.22-2.54-1.68-4.07-4.81-4.35l-2.67-0.23l-0.69,7.91c0.61,0.08,1.47,0.19,2.45,0.28C472.46,98.63,474.88,97.42,475.12,94.75z"/>
<path fill="#FFFFFF" d="M480.16,107.71l2.21,0.19l0.82-9.36l-2.21-0.19l0.16-1.87l4.32,0.38l-0.98,11.23l2.21,0.19l-0.16,1.84
	l-6.53-0.57L480.16,107.71z M482.87,91.57c0.08-0.92,0.95-1.65,1.87-1.57c0.89,0.08,1.59,0.94,1.51,1.86
	c-0.08,0.92-0.95,1.62-1.84,1.54C483.49,93.32,482.79,92.49,482.87,91.57z"/>
<path fill="#FFFFFF" d="M489.43,103.83c0.32-3.62,3.48-6.56,7.13-6.24c2.98,0.26,5.17,2.43,4.99,4.39
	c-0.08,0.98-0.86,1.72-1.81,1.63c-0.71-0.06-1.37-0.64-1.29-1.57c0.04-0.43,0.32-0.81,0.74-1.02c-0.27-0.83-1.51-1.52-2.82-1.64
	c-1.93-0.17-4.47,1.31-4.77,4.65c-0.25,2.85,1.6,5.02,4.58,5.28c1.47,0.13,2.86-0.21,4.48-1.06l-0.36,2.04
	c-1.4,0.77-3.12,0.99-4.53,0.87C491.82,110.83,489.09,107.69,489.43,103.83z"/>
<path fill="#FFFFFF" d="M504.84,90.96l0.16-1.84l4.2,0.37l-1.03,11.75c1.38-1.33,3.2-2.35,5.08-2.18c1.53,0.13,2.59,0.75,3.19,1.7
	c0.51,0.82,0.7,1.89,0.59,3.08l-0.62,7.05l2.12,0.19l-0.16,1.84l-6.29-0.55l0.16-1.84l2.05,0.18l0.58-6.63
	c0.08-0.95-0.04-1.61-0.4-2.11c-0.38-0.59-1.06-0.93-1.95-1c-1.63-0.14-3.22,0.74-4.5,1.93l-0.63,7.21l2.06,0.18l-0.16,1.84
	l-6.26-0.54l0.16-1.84l2.08,0.18l1.64-18.77L504.84,90.96z"/>
<path fill="#FFFFFF" d="M520.55,109.58c0.21-2.39,2.46-3.77,5.38-3.52c1.41,0.12,3.06,0.64,3.72,0.94l0.16-1.81
	c0.07-0.73-0.09-1.4-0.42-1.89c-0.53-0.7-1.44-1.18-2.76-1.29c-1.04-0.09-1.62,0.14-2.07,0.38c0.07,0.22,0.14,0.51,0.12,0.78
	c-0.07,0.77-0.67,1.3-1.5,1.23c-0.8-0.07-1.3-0.73-1.23-1.53c0.13-1.5,1.98-2.88,5.11-2.61c1.93,0.17,3.29,0.87,4.07,1.9
	c0.61,0.8,0.83,1.8,0.74,2.91l-0.62,7.12l2.12,0.19l-0.16,1.84l-4.08-0.36l0.14-1.66c-1.16,0.95-2.93,1.66-4.7,1.5
	C522.03,113.48,520.36,111.82,520.55,109.58z M529.33,110.56l0.19-2.18c-0.96-0.36-2.22-0.72-3.48-0.83
	c-2.09-0.18-3.22,0.71-3.33,2.06c-0.11,1.26,0.76,2.26,2.54,2.42C526.81,112.17,528.23,111.49,529.33,110.56z"/>
<path fill="#FFFFFF" d="M546.29,103.67c-0.07,0.83-0.78,1.51-1.61,1.43c-0.8-0.07-1.3-0.64-1.47-1.24c-1.01,0.19-2.3,1.25-3.06,2.51
	l-0.57,6.53l2.45,0.21l-0.16,1.84l-6.66-0.58l0.16-1.84l2.08,0.18l0.82-9.35l-2.08-0.18l0.16-1.87l4.11,0.36l-0.26,2.97
	c1.17-1.72,2.86-3,4.27-2.87C545.76,101.89,546.37,102.78,546.29,103.67z"/>
<path fill="#FFFFFF" d="M547.16,108.94c0.32-3.71,3.15-6.65,7.07-6.3c1.63,0.14,2.98,0.88,3.91,1.92l0.78-8.86l-2.46-0.22l0.16-1.84
	l4.57,0.4l-1.8,20.61l2.12,0.19l-0.16,1.84l-4.17-0.37l0.16-1.84c-1.21,1.13-2.64,1.87-4.57,1.7
	C549.3,115.86,546.8,112.93,547.16,108.94z M557.42,112.74l0.56-6.41c-0.91-0.92-2.08-1.7-3.79-1.85c-2.58-0.22-4.57,1.73-4.82,4.62
	c-0.29,2.91,1.38,5.04,3.87,5.25C554.92,114.5,556.28,113.75,557.42,112.74z"/>
<polygon fill="#6E0C24" points="152.6,136.2 179.77,148.9 177.99,133.51 "/>
<polygon fill="#6E0C24" points="606.05,136.2 578.88,148.9 580.65,133.51 "/>
</svg>
