<?xml version="1.0" encoding="utf-8"?>
<!-- Generator: Adobe Illustrator 15.0.0, SVG Export Plug-In . SVG Version: 6.00 Build 0)  -->
<!DOCTYPE svg PUBLIC "-//W3C//DTD SVG 1.1//EN" "http://www.w3.org/Graphics/SVG/1.1/DTD/svg11.dtd">
<svg version="1.1" id="Layer_1" xmlns="http://www.w3.org/2000/svg" xmlns:xlink="http://www.w3.org/1999/xlink" x="0px" y="0px"
	 width="141.5px" height="41.167px" viewBox="0 0 141.5 41.167" enable-background="new 0 0 141.5 41.167" xml:space="preserve">
<g>
	<path fill="#FFFFFF" d="M37.387,20.536h-2.665v2.323h2.701v-0.001c1.062,0,1.674-0.414,1.674-1.151v-0.037
		C39.097,20.985,38.557,20.536,37.387,20.536z"/>
	<path fill="#FFFFFF" d="M38.576,16.987v-0.036c0-0.684-0.54-1.08-1.584-1.08h-2.269v2.215h2.196
		C37.982,18.086,38.576,17.726,38.576,16.987z"/>
	<path fill="#FFFFFF" d="M90.756,18.608c-1.242,0-2.033,0.99-2.033,2.161v0.036c0,1.188,0.863,2.196,2.07,2.196
		c1.242,0,2.033-0.99,2.033-2.161v-0.036C92.826,19.617,91.963,18.608,90.756,18.608z"/>
	<path fill="#FFFFFF" d="M121.5,3.666H20.167c-9.297,0-16.834,7.537-16.834,16.834v0.333c0,9.297,7.537,16.834,16.834,16.834
		h101.332c9.297,0,16.834-7.537,16.834-16.834h0.001V20.5C138.334,11.203,130.797,3.666,121.5,3.666z M42.59,22.192
		c0,2.16-1.765,3.476-4.771,3.476h-6.5V13.063h6.464c1.584,0,2.701,0.396,3.439,1.134c0.504,0.504,0.81,1.17,0.81,2.035v0.036
		c0,1.458-0.828,2.323-1.945,2.809c1.531,0.504,2.503,1.368,2.503,3.078V22.192z M53.57,25.666h-3.421v-1.332
		c-0.63,0.811-1.53,1.549-2.917,1.549c-2.07,0-3.313-1.368-3.313-3.584v-6.374h3.421v5.276c0,1.063,0.558,1.639,1.387,1.639
		c0.81,0,1.422-0.575,1.422-1.639v-5.276h3.421V25.666z M61.993,25.43c-0.846,2.269-1.765,3.169-3.709,3.169
		c-1.206,0.002-2.233-0.34-3.133-0.844l1.063-2.396c0.54,0.323,1.116,0.521,1.495,0.521c0.342,0,0.576-0.09,0.792-0.396
		l-3.817-9.561h3.583l1.944,5.871l1.836-5.871h3.511L61.993,25.43z M83.758,25.667h-3.063l-5.383-6.915v6.915h-3.457V13.063h3.26
		l5.186,6.662v-6.662h3.457V25.667z M96.157,20.805c0,2.772-2.271,5.096-5.402,5.096c-3.114,0-5.364-2.287-5.364-5.06v-0.036
		c0-2.773,2.27-5.096,5.401-5.096c3.115,0,5.365,2.287,5.365,5.06V20.805z M108.505,25.739h-2.95l-1.586-5.06l-1.619,5.06h-2.937
		l-2.97-9.813h3.35l1.277,4.897l1.494-4.933h2.828l1.512,4.969l1.314-4.933h3.295L108.505,25.739z"/>
</g>
</svg>
