<?xml version="1.0" encoding="utf-8"?>
<!-- Generator: Adobe Illustrator 15.0.0, SVG Export Plug-In . SVG Version: 6.00 Build 0)  -->
<!DOCTYPE svg PUBLIC "-//W3C//DTD SVG 1.1//EN" "http://www.w3.org/Graphics/SVG/1.1/DTD/svg11.dtd">
<svg version="1.1" id="Layer_1" xmlns="http://www.w3.org/2000/svg" xmlns:xlink="http://www.w3.org/1999/xlink" x="0px" y="0px"
	 width="164px" height="52.917px" viewBox="0 0 164 52.917" enable-background="new 0 0 164 52.917" xml:space="preserve">
<g>
	<path fill="#FFFFFF" d="M52.319,16.384l0.528,0.993c-1.193,0.787-2.295,1.343-3.306,1.671s-2.067,0.492-3.171,0.492
		c-2.332,0-4.165-0.664-5.499-1.992s-2.002-3.116-2.002-5.364c0-2.387,0.751-4.308,2.255-5.763c1.503-1.455,3.583-2.183,6.239-2.183
		c0.848,0,1.667,0.067,2.457,0.202c0.79,0.134,1.768,0.384,2.933,0.75c-0.042,0.448-0.062,0.914-0.062,1.396
		c0,0.835,0.052,1.855,0.155,3.063h-1.138c-0.345-1.324-0.573-2.1-0.683-2.328c-0.255-0.518-0.674-0.955-1.257-1.314
		c-0.583-0.358-1.371-0.538-2.364-0.538c-1.511,0-2.676,0.462-3.497,1.386c-0.993,1.111-1.49,2.646-1.49,4.604
		c0,2.028,0.495,3.571,1.484,4.63c0.99,1.059,2.323,1.588,3.999,1.588C49.392,17.678,50.864,17.247,52.319,16.384z"/>
	<path fill="#FFFFFF" d="M56.323,12.691l-0.92-0.104c0.2-0.977,0.328-1.843,0.383-2.6c1.257-0.605,2.569-0.908,3.937-0.908
		c0.794,0,1.428,0.127,1.901,0.383s0.799,0.604,0.979,1.045s0.27,1.128,0.27,2.059l-0.052,3.518c0,0.669,0.057,1.091,0.171,1.267
		s0.264,0.264,0.45,0.264c0.221,0,0.548-0.121,0.983-0.362l0.393,0.6c-0.938,0.662-1.631,1.097-2.08,1.304
		c-0.324,0.145-0.634,0.217-0.931,0.217c-0.393,0-0.731-0.107-1.014-0.321s-0.476-0.531-0.58-0.952
		c-0.828,0.573-1.407,0.93-1.738,1.071c-0.331,0.141-0.731,0.212-1.2,0.212c-0.71,0-1.292-0.24-1.744-0.719
		c-0.452-0.479-0.677-1.119-0.677-1.919c0-0.565,0.151-1.09,0.455-1.573c0.207-0.338,0.59-0.662,1.148-0.973l3.755-1.779
		c-0.014-0.821-0.143-1.373-0.388-1.655c-0.245-0.283-0.609-0.424-1.092-0.424c-0.49,0-0.916,0.16-1.277,0.481
		C57.094,11.144,56.717,11.767,56.323,12.691z M60.213,13.539c-1.138,0.531-1.855,0.966-2.152,1.304s-0.445,0.779-0.445,1.324
		c0,0.559,0.11,0.969,0.331,1.231s0.507,0.393,0.859,0.393c0.269,0,0.529-0.09,0.781-0.269c0.252-0.179,0.421-0.433,0.507-0.76
		c0.086-0.328,0.129-1.016,0.129-2.064C60.224,14.457,60.22,14.07,60.213,13.539z"/>
	<path fill="#FFFFFF" d="M71.791,9.432l0.134,0.145c-0.221,0.386-0.417,0.786-0.59,1.2c-0.738-0.076-1.535-0.131-2.39-0.166
		l-0.031,1.231l-0.031,1.417l-0.031,1.407c0,1.317,0.109,2.143,0.326,2.478c0.217,0.334,0.502,0.501,0.854,0.501
		c0.269,0,0.703-0.131,1.303-0.393l0.373,0.745c-1.042,0.627-1.735,1.003-2.08,1.127c-0.462,0.166-0.903,0.249-1.324,0.249
		c-0.642,0-1.153-0.204-1.536-0.61c-0.383-0.407-0.575-1.007-0.575-1.8l0.042-2.39l0.083-3.962L65.48,10.59
		c-0.076,0-0.29,0.007-0.642,0.021V9.846c0.662-0.234,1.271-0.617,1.826-1.148c0.555-0.531,1.115-1.317,1.681-2.359h0.91
		c-0.182,1.145-0.288,2.176-0.315,3.093c0.601,0.014,0.967,0.021,1.099,0.021C70.295,9.453,70.879,9.446,71.791,9.432z"/>
	<path fill="#FFFFFF" d="M72.081,6.183V5.438c1.097-0.255,1.902-0.474,2.416-0.657c0.514-0.183,1.067-0.436,1.661-0.76l0.518,0.32
		c-0.076,0.656-0.138,1.514-0.187,2.576c-0.062,1.511-0.093,2.676-0.093,3.497v0.631c0.869-0.883,1.493-1.428,1.873-1.635
		s0.848-0.311,1.407-0.311c0.758,0,1.339,0.176,1.743,0.528c0.403,0.352,0.646,0.807,0.729,1.366
		c0.055,0.386,0.083,1.552,0.083,3.497c0,1.579,0.014,2.562,0.042,2.948c0.021,0.276,0.086,0.473,0.197,0.59
		c0.11,0.118,0.417,0.242,0.92,0.373c0.09,0.021,0.224,0.055,0.404,0.104v0.724c-1.182-0.076-2.115-0.114-2.799-0.114
		c-0.726,0-1.638,0.038-2.736,0.114v-0.724c0.612-0.159,0.975-0.305,1.09-0.44c0.115-0.134,0.172-0.426,0.172-0.874
		c0-2.938-0.004-4.466-0.01-4.583c-0.042-0.559-0.176-0.953-0.404-1.185c-0.228-0.231-0.542-0.347-0.941-0.347
		c-0.379,0-0.728,0.126-1.045,0.378c-0.317,0.252-0.528,0.595-0.631,1.029c-0.069,0.296-0.103,1.145-0.103,2.545
		c0,1.545,0.014,2.425,0.041,2.638c0.027,0.214,0.11,0.383,0.249,0.507c0.138,0.124,0.455,0.234,0.952,0.331v0.724
		c-1.076-0.076-1.928-0.114-2.555-0.114c-0.421,0-1.417,0.038-2.99,0.114v-0.724c0.117-0.035,0.207-0.059,0.269-0.072
		c0.559-0.138,0.886-0.259,0.983-0.362c0.138-0.159,0.221-0.469,0.248-0.931c0.055-0.986,0.083-2.89,0.083-5.711l-0.031-4.511
		c0-0.29-0.055-0.498-0.166-0.625C73.356,6.164,73.201,6.1,73.001,6.1C72.739,6.1,72.432,6.128,72.081,6.183z"/>
	<path fill="#FFFFFF" d="M92.7,16.426l0.538,0.786c-1.083,0.917-2.08,1.583-2.99,1.997c-0.394,0.179-0.897,0.269-1.511,0.269
		c-1.283,0-2.263-0.379-2.938-1.138c-0.855-0.952-1.283-2.221-1.283-3.808c0-1.648,0.49-2.986,1.469-4.014s2.193-1.542,3.642-1.542
		c1.324,0,2.293,0.4,2.907,1.2c0.407,0.524,0.642,1.342,0.704,2.452c-0.345,0.228-0.666,0.486-0.962,0.776
		c-0.725-0.027-1.462-0.042-2.214-0.042c-0.979,0-1.89,0.014-2.731,0.042c-0.007,0.152-0.01,0.279-0.01,0.383
		c0,0.972,0.223,1.828,0.667,2.566c0.445,0.738,1.112,1.107,2.002,1.107c0.435,0,0.85-0.073,1.247-0.217
		C91.633,17.098,92.121,16.826,92.7,16.426z M87.352,12.339c0.386,0.014,0.704,0.021,0.952,0.021c0.593,0,1.317-0.028,2.173-0.083
		c-0.042-0.88-0.188-1.466-0.44-1.757s-0.599-0.437-1.04-0.437c-0.428,0-0.793,0.173-1.097,0.52
		C87.596,10.95,87.414,11.528,87.352,12.339z"/>
	<path fill="#FFFFFF" d="M99.291,6.235V5.479c1.58-0.338,2.952-0.824,4.118-1.458l0.497,0.362c-0.097,0.876-0.169,1.883-0.217,3.021
		c-0.048,1.138-0.073,2.407-0.073,3.808c0,2.504,0.007,4.273,0.021,5.308c0.007,0.482,0.069,0.785,0.186,0.905
		s0.328,0.181,0.631,0.181c0.069,0,0.324-0.003,0.766-0.01v0.724c-0.849,0.119-1.575,0.256-2.178,0.413
		c-0.604,0.157-1.254,0.371-1.951,0.643l-0.507-0.249c0.076-0.435,0.135-0.884,0.176-1.347c-0.786,0.656-1.438,1.105-1.955,1.347
		c-0.366,0.173-0.759,0.259-1.18,0.259c-0.814,0-1.5-0.348-2.059-1.045c-0.731-0.89-1.097-2.052-1.097-3.487
		c0-0.689,0.099-1.379,0.295-2.069c0.197-0.69,0.51-1.3,0.942-1.832c0.431-0.531,1.003-0.974,1.717-1.33
		c0.714-0.355,1.443-0.533,2.188-0.533c0.166,0,0.352,0.018,0.559,0.052c0.207,0.035,0.434,0.086,0.683,0.155
		c0.021-0.759,0.031-1.293,0.031-1.604c0-0.731-0.056-1.174-0.166-1.33c-0.11-0.155-0.307-0.233-0.59-0.233
		C99.929,6.131,99.649,6.166,99.291,6.235z M100.874,13.808c0-1.407-0.1-2.314-0.3-2.721c-0.262-0.524-0.683-0.786-1.262-0.786
		c-0.49,0-0.931,0.268-1.324,0.802c-0.393,0.535-0.59,1.45-0.59,2.747c0,1.269,0.231,2.228,0.693,2.876
		c0.317,0.442,0.724,0.662,1.221,0.662c0.586,0,1.014-0.3,1.283-0.9C100.781,16.053,100.874,15.16,100.874,13.808z"/>
	<path fill="#FFFFFF" d="M105.478,11.19v-0.724c1.71-0.373,3.076-0.841,4.097-1.407l0.497,0.28c-0.117,0.724-0.186,1.521-0.207,2.39
		c0.704-1.104,1.223-1.783,1.557-2.038c0.335-0.255,0.729-0.383,1.185-0.383c0.31,0,0.652,0.083,1.024,0.249
		c-0.214,0.862-0.379,1.755-0.497,2.68h-0.704c-0.034-0.276-0.124-0.479-0.269-0.611c-0.145-0.131-0.317-0.196-0.517-0.196
		c-0.304,0-0.59,0.141-0.859,0.424c-0.407,0.435-0.689,0.969-0.848,1.604c-0.083,0.324-0.124,0.883-0.124,1.676
		c0,1.4,0.014,2.208,0.041,2.421c0.028,0.214,0.104,0.372,0.228,0.476c0.124,0.104,0.507,0.228,1.148,0.373
		c0.089,0.021,0.224,0.055,0.403,0.104v0.724c-1.311-0.076-2.369-0.114-3.176-0.114c-0.869,0-1.862,0.038-2.979,0.114v-0.724
		c0.828-0.172,1.296-0.366,1.407-0.58c0.159-0.296,0.238-1.714,0.238-4.252c0-1.345-0.052-2.109-0.155-2.292
		c-0.104-0.183-0.29-0.274-0.559-0.274C106.202,11.108,105.892,11.136,105.478,11.19z"/>
	<path fill="#FFFFFF" d="M115.7,12.691l-0.921-0.104c0.2-0.977,0.328-1.843,0.383-2.6c1.257-0.605,2.569-0.908,3.937-0.908
		c0.794,0,1.428,0.127,1.901,0.383c0.473,0.255,0.799,0.604,0.979,1.045s0.27,1.128,0.27,2.059l-0.052,3.518
		c0,0.669,0.057,1.091,0.171,1.267s0.264,0.264,0.45,0.264c0.221,0,0.548-0.121,0.983-0.362l0.393,0.6
		c-0.938,0.662-1.631,1.097-2.08,1.304c-0.324,0.145-0.635,0.217-0.931,0.217c-0.393,0-0.731-0.107-1.014-0.321
		c-0.283-0.214-0.476-0.531-0.58-0.952c-0.828,0.573-1.407,0.93-1.738,1.071c-0.331,0.141-0.731,0.212-1.2,0.212
		c-0.71,0-1.292-0.24-1.743-0.719c-0.452-0.479-0.678-1.119-0.678-1.919c0-0.565,0.152-1.09,0.456-1.573
		c0.207-0.338,0.589-0.662,1.148-0.973l3.755-1.779c-0.014-0.821-0.143-1.373-0.388-1.655c-0.245-0.283-0.609-0.424-1.092-0.424
		c-0.49,0-0.916,0.16-1.278,0.481C116.471,11.144,116.093,11.767,115.7,12.691z M119.59,13.539
		c-1.138,0.531-1.855,0.966-2.152,1.304c-0.297,0.338-0.445,0.779-0.445,1.324c0,0.559,0.11,0.969,0.331,1.231
		s0.507,0.393,0.859,0.393c0.269,0,0.529-0.09,0.781-0.269c0.251-0.179,0.42-0.433,0.507-0.76c0.086-0.328,0.129-1.016,0.129-2.064
		C119.6,14.457,119.597,14.07,119.59,13.539z"/>
	<path fill="#FFFFFF" d="M124.204,6.193V5.469c1.014-0.243,1.792-0.462,2.333-0.656c0.542-0.195,1.126-0.458,1.754-0.792
		l0.507,0.362c-0.097,0.883-0.171,1.924-0.222,3.125c-0.052,1.2-0.078,2.563-0.078,4.087c0,3.283,0.008,5.14,0.026,5.571
		c0.017,0.431,0.081,0.705,0.191,0.822c0.165,0.18,0.606,0.352,1.324,0.518v0.724c-1.083-0.076-2.063-0.114-2.938-0.114
		c-0.896,0-1.887,0.038-2.969,0.114v-0.724c0.766-0.172,1.217-0.331,1.355-0.476c0.138-0.145,0.22-0.469,0.248-0.972
		c0.042-0.73,0.062-2.67,0.062-5.82c0-2.901-0.021-4.452-0.062-4.652c-0.062-0.317-0.3-0.476-0.714-0.476
		C124.835,6.111,124.563,6.138,124.204,6.193z"/>
</g>
<g>
	<path fill="#FFFFFF" d="M38.388,31.229v-0.766c1.607,0.076,2.935,0.114,3.983,0.114c0.8,0,1.907-0.021,3.321-0.062
		c1.027-0.035,1.886-0.052,2.576-0.052c1.296,0,2.324,0.166,3.083,0.497c1.048,0.455,1.871,1.155,2.467,2.1
		c0.597,0.945,0.895,2.169,0.895,3.673c0,1.669-0.39,3.154-1.169,4.454c-0.78,1.3-1.876,2.316-3.29,3.047
		c-1.18,0.614-2.611,0.921-4.294,0.921c-0.159,0-0.8-0.022-1.924-0.067c-1.124-0.045-1.755-0.067-1.893-0.067
		c-0.483,0-1.735,0.041-3.756,0.124v-0.766l0.437-0.083c0.908-0.158,1.439-0.307,1.595-0.445c0.156-0.138,0.248-0.341,0.275-0.61
		c0.028-0.4,0.042-2.493,0.042-6.28c0-2.78-0.027-4.346-0.083-4.697c-0.035-0.242-0.121-0.417-0.259-0.528
		c-0.138-0.11-0.662-0.248-1.573-0.414L38.388,31.229z M43.944,43.769c0.834,0.138,1.535,0.207,2.1,0.207
		c1.586,0,2.783-0.469,3.59-1.407c1.028-1.2,1.542-2.942,1.542-5.225c0-1.959-0.456-3.445-1.366-4.459
		c-0.738-0.828-1.894-1.242-3.466-1.242c-0.662,0-1.462,0.066-2.4,0.197c-0.069,1.076-0.104,3.073-0.104,5.99
		C43.841,39.506,43.875,41.485,43.944,43.769z"/>
	<path fill="#FFFFFF" d="M64.46,42.341l0.538,0.786c-1.083,0.917-2.08,1.583-2.99,1.997c-0.393,0.179-0.896,0.269-1.51,0.269
		c-1.283,0-2.263-0.379-2.938-1.138c-0.855-0.952-1.283-2.221-1.283-3.808c0-1.648,0.49-2.986,1.469-4.014
		c0.979-1.028,2.194-1.542,3.642-1.542c1.324,0,2.293,0.4,2.907,1.2c0.407,0.524,0.642,1.341,0.704,2.452
		c-0.345,0.227-0.666,0.486-0.962,0.775c-0.724-0.027-1.462-0.041-2.214-0.041c-0.979,0-1.89,0.014-2.731,0.041
		c-0.007,0.152-0.01,0.28-0.01,0.383c0,0.973,0.222,1.828,0.667,2.566c0.445,0.738,1.112,1.107,2.002,1.107
		c0.434,0,0.85-0.073,1.247-0.217C63.393,43.013,63.881,42.741,64.46,42.341z M59.112,38.254c0.386,0.014,0.703,0.021,0.952,0.021
		c0.593,0,1.317-0.028,2.172-0.083c-0.041-0.88-0.188-1.466-0.439-1.757c-0.252-0.291-0.599-0.437-1.04-0.437
		c-0.428,0-0.793,0.173-1.097,0.52C59.356,36.865,59.173,37.443,59.112,38.254z"/>
	<path fill="#FFFFFF" d="M65.774,37.116v-0.745c0.911-0.193,1.667-0.396,2.271-0.61s1.202-0.486,1.795-0.817l0.538,0.31
		c-0.097,0.524-0.162,1.097-0.197,1.718c0.766-0.869,1.342-1.416,1.728-1.64s0.841-0.336,1.366-0.336c0.517,0,0.964,0.1,1.34,0.3
		c0.375,0.2,0.655,0.454,0.838,0.761c0.183,0.307,0.302,0.719,0.357,1.236c0.035,0.325,0.052,1.104,0.052,2.338l-0.01,1.842
		c0,1.187,0.014,1.885,0.041,2.095c0.028,0.21,0.095,0.362,0.202,0.455c0.107,0.093,0.412,0.195,0.916,0.305
		c0.083,0.021,0.214,0.052,0.393,0.093v0.725c-1.152-0.076-2.045-0.114-2.68-0.114c-0.642,0-1.586,0.038-2.834,0.114V44.42
		c0.531-0.131,0.855-0.25,0.972-0.356s0.19-0.285,0.217-0.533c0.042-0.345,0.062-1.486,0.062-3.424c0-1.373-0.059-2.2-0.176-2.483
		c-0.193-0.448-0.555-0.673-1.086-0.673c-0.386,0-0.74,0.138-1.061,0.414c-0.32,0.276-0.526,0.627-0.615,1.055
		c-0.09,0.428-0.135,1.369-0.135,2.825c0,1.304,0.028,2.114,0.083,2.431c0.027,0.172,0.089,0.298,0.186,0.377
		c0.097,0.08,0.421,0.202,0.973,0.367v0.725c-1.048-0.076-1.924-0.114-2.628-0.114c-0.655,0-1.625,0.038-2.907,0.114V44.42
		c0.759-0.2,1.188-0.345,1.288-0.434c0.1-0.09,0.167-0.296,0.202-0.621c0.062-0.745,0.093-1.71,0.093-2.897
		c0-1.813-0.021-2.81-0.062-2.99c-0.083-0.303-0.293-0.455-0.631-0.455C66.45,37.023,66.154,37.054,65.774,37.116z"/>
	<path fill="#FFFFFF" d="M84.604,35.347l0.135,0.145c-0.221,0.386-0.417,0.786-0.59,1.2c-0.738-0.076-1.535-0.131-2.39-0.166
		l-0.031,1.231l-0.031,1.417l-0.031,1.407c0,1.317,0.108,2.143,0.326,2.478c0.217,0.335,0.502,0.502,0.854,0.502
		c0.269,0,0.704-0.131,1.304-0.393l0.373,0.745c-1.042,0.628-1.735,1.004-2.08,1.128c-0.462,0.166-0.904,0.248-1.324,0.248
		c-0.642,0-1.154-0.203-1.537-0.61c-0.383-0.407-0.574-1.007-0.574-1.8l0.042-2.39l0.083-3.962l-0.838-0.021
		c-0.076,0-0.29,0.007-0.641,0.021v-0.766c0.662-0.234,1.271-0.617,1.826-1.148c0.555-0.531,1.115-1.317,1.681-2.359h0.91
		c-0.182,1.145-0.288,2.176-0.315,3.093c0.601,0.014,0.967,0.021,1.099,0.021C83.108,35.367,83.692,35.361,84.604,35.347z"/>
	<path fill="#FFFFFF" d="M87.025,38.605l-0.92-0.103c0.2-0.977,0.328-1.843,0.383-2.6c1.257-0.605,2.569-0.908,3.937-0.908
		c0.794,0,1.428,0.127,1.901,0.383c0.473,0.255,0.799,0.604,0.979,1.045s0.27,1.127,0.27,2.059l-0.052,3.518
		c0,0.669,0.057,1.092,0.171,1.268c0.114,0.176,0.264,0.264,0.45,0.264c0.221,0,0.548-0.12,0.983-0.362l0.393,0.6
		c-0.938,0.662-1.631,1.097-2.079,1.303c-0.325,0.145-0.635,0.217-0.931,0.217c-0.394,0-0.731-0.107-1.014-0.32
		c-0.283-0.214-0.476-0.531-0.58-0.952c-0.828,0.573-1.407,0.93-1.738,1.071c-0.331,0.142-0.731,0.212-1.2,0.212
		c-0.71,0-1.292-0.24-1.743-0.719c-0.452-0.479-0.678-1.119-0.678-1.919c0-0.565,0.151-1.089,0.455-1.572
		c0.207-0.338,0.59-0.662,1.148-0.973l3.755-1.779c-0.014-0.821-0.143-1.373-0.388-1.656c-0.245-0.283-0.609-0.424-1.092-0.424
		c-0.49,0-0.916,0.16-1.277,0.481C87.796,37.059,87.418,37.682,87.025,38.605z M90.915,39.454c-1.138,0.531-1.855,0.966-2.152,1.304
		c-0.296,0.338-0.445,0.779-0.445,1.324c0,0.559,0.11,0.969,0.331,1.231c0.221,0.262,0.507,0.394,0.859,0.394
		c0.269,0,0.529-0.09,0.781-0.269c0.251-0.18,0.42-0.433,0.507-0.761c0.086-0.328,0.129-1.015,0.129-2.064
		C90.926,40.372,90.922,39.985,90.915,39.454z"/>
	<path fill="#FFFFFF" d="M95.53,32.108v-0.724c1.014-0.243,1.792-0.462,2.333-0.657c0.541-0.194,1.126-0.458,1.753-0.792
		l0.507,0.362c-0.097,0.883-0.171,1.924-0.223,3.125s-0.078,2.563-0.078,4.087c0,3.283,0.009,5.14,0.026,5.571
		s0.081,0.705,0.191,0.822c0.166,0.18,0.607,0.352,1.324,0.517v0.725c-1.083-0.076-2.063-0.114-2.938-0.114
		c-0.896,0-1.886,0.038-2.969,0.114V44.42c0.766-0.172,1.217-0.331,1.355-0.475s0.221-0.469,0.249-0.972
		c0.041-0.73,0.062-2.67,0.062-5.82c0-2.901-0.021-4.452-0.062-4.652c-0.063-0.317-0.3-0.476-0.714-0.476
		C96.161,32.025,95.888,32.053,95.53,32.108z"/>
	<path fill="#FFFFFF" d="M121.509,42.299l0.527,0.993c-1.193,0.786-2.295,1.343-3.305,1.671c-1.011,0.328-2.068,0.491-3.171,0.491
		c-2.332,0-4.164-0.664-5.499-1.991c-1.334-1.328-2.002-3.116-2.002-5.365c0-2.386,0.752-4.307,2.256-5.763
		c1.503-1.455,3.583-2.183,6.238-2.183c0.849,0,1.667,0.067,2.458,0.202c0.79,0.135,1.767,0.385,2.933,0.75
		c-0.041,0.448-0.062,0.914-0.062,1.396c0,0.834,0.052,1.855,0.155,3.063h-1.138c-0.345-1.324-0.573-2.1-0.683-2.328
		c-0.255-0.518-0.674-0.956-1.257-1.314c-0.583-0.358-1.371-0.538-2.364-0.538c-1.511,0-2.676,0.462-3.497,1.386
		c-0.993,1.111-1.49,2.646-1.49,4.604c0,2.028,0.495,3.571,1.485,4.63c0.99,1.059,2.323,1.588,3.999,1.588
		C118.581,43.592,120.053,43.162,121.509,42.299z"/>
	<path fill="#FFFFFF" d="M123.423,32.108v-0.724c1.014-0.243,1.792-0.462,2.333-0.657c0.541-0.194,1.126-0.458,1.753-0.792
		l0.507,0.362c-0.097,0.883-0.17,1.924-0.222,3.125s-0.078,2.563-0.078,4.087c0,3.283,0.009,5.14,0.026,5.571
		s0.081,0.705,0.191,0.822c0.166,0.18,0.607,0.352,1.324,0.517v0.725c-1.083-0.076-2.063-0.114-2.938-0.114
		c-0.896,0-1.886,0.038-2.969,0.114V44.42c0.766-0.172,1.217-0.331,1.355-0.475c0.138-0.145,0.221-0.469,0.249-0.972
		c0.041-0.73,0.062-2.67,0.062-5.82c0-2.901-0.021-4.452-0.062-4.652c-0.063-0.317-0.3-0.476-0.714-0.476
		C124.054,32.025,123.781,32.053,123.423,32.108z"/>
	<path fill="#FFFFFF" d="M130.034,37.033v-0.745c1.566-0.275,2.918-0.755,4.056-1.438l0.528,0.279
		c-0.097,0.835-0.159,1.58-0.186,2.235c-0.048,0.973-0.073,2.511-0.073,4.614c0,0.883,0.031,1.445,0.093,1.687
		c0.042,0.159,0.123,0.278,0.243,0.357s0.533,0.212,1.236,0.398v0.725c-0.959-0.076-1.835-0.114-2.628-0.114
		c-0.759,0-1.866,0.038-3.321,0.114V44.42l0.269-0.062c0.607-0.138,0.966-0.257,1.076-0.356c0.11-0.1,0.179-0.278,0.207-0.533
		c0.062-0.655,0.093-2.007,0.093-4.056c0-1.186-0.031-1.876-0.093-2.069c-0.083-0.255-0.279-0.383-0.59-0.383
		C130.675,36.961,130.372,36.985,130.034,37.033z M133.044,30.081c0.462,0,0.857,0.164,1.185,0.492s0.492,0.722,0.492,1.185
		c0,0.462-0.164,0.857-0.492,1.185s-0.723,0.491-1.185,0.491s-0.857-0.164-1.185-0.491s-0.491-0.723-0.491-1.185
		c0-0.462,0.162-0.857,0.486-1.185C132.179,30.245,132.575,30.081,133.044,30.081z"/>
	<path fill="#FFFFFF" d="M136.49,37.116v-0.745c0.911-0.193,1.667-0.396,2.271-0.61s1.202-0.486,1.795-0.817l0.538,0.31
		c-0.097,0.524-0.162,1.097-0.196,1.718c0.765-0.869,1.341-1.416,1.728-1.64s0.841-0.336,1.366-0.336c0.517,0,0.964,0.1,1.34,0.3
		s0.655,0.454,0.838,0.761c0.183,0.307,0.302,0.719,0.357,1.236c0.035,0.325,0.052,1.104,0.052,2.338l-0.01,1.842
		c0,1.187,0.014,1.885,0.042,2.095c0.027,0.21,0.095,0.362,0.202,0.455s0.412,0.195,0.916,0.305
		c0.083,0.021,0.214,0.052,0.393,0.093v0.725c-1.152-0.076-2.045-0.114-2.68-0.114c-0.641,0-1.586,0.038-2.835,0.114V44.42
		c0.531-0.131,0.855-0.25,0.973-0.356s0.19-0.285,0.217-0.533c0.042-0.345,0.062-1.486,0.062-3.424c0-1.373-0.059-2.2-0.176-2.483
		c-0.193-0.448-0.555-0.673-1.086-0.673c-0.386,0-0.74,0.138-1.06,0.414c-0.321,0.276-0.526,0.627-0.616,1.055
		c-0.09,0.428-0.135,1.369-0.135,2.825c0,1.304,0.028,2.114,0.083,2.431c0.027,0.172,0.089,0.298,0.186,0.377
		c0.097,0.08,0.421,0.202,0.973,0.367v0.725c-1.048-0.076-1.924-0.114-2.628-0.114c-0.655,0-1.625,0.038-2.907,0.114V44.42
		c0.759-0.2,1.188-0.345,1.288-0.434c0.1-0.09,0.167-0.296,0.202-0.621c0.062-0.745,0.093-1.71,0.093-2.897
		c0-1.813-0.021-2.81-0.062-2.99c-0.083-0.303-0.293-0.455-0.631-0.455C137.166,37.023,136.869,37.054,136.49,37.116z"/>
	<path fill="#FFFFFF" d="M148.574,37.033v-0.745c1.565-0.275,2.917-0.755,4.055-1.438l0.528,0.279
		c-0.097,0.835-0.159,1.58-0.186,2.235c-0.048,0.973-0.073,2.511-0.073,4.614c0,0.883,0.031,1.445,0.093,1.687
		c0.042,0.159,0.123,0.278,0.243,0.357s0.533,0.212,1.236,0.398v0.725c-0.958-0.076-1.834-0.114-2.628-0.114
		c-0.759,0-1.866,0.038-3.321,0.114V44.42l0.269-0.062c0.607-0.138,0.965-0.257,1.076-0.356c0.11-0.1,0.179-0.278,0.207-0.533
		c0.062-0.655,0.093-2.007,0.093-4.056c0-1.186-0.031-1.876-0.093-2.069c-0.083-0.255-0.279-0.383-0.59-0.383
		C149.215,36.961,148.912,36.985,148.574,37.033z M151.585,30.081c0.462,0,0.857,0.164,1.185,0.492
		c0.327,0.328,0.491,0.722,0.491,1.185c0,0.462-0.164,0.857-0.491,1.185c-0.328,0.328-0.723,0.491-1.185,0.491
		c-0.462,0-0.857-0.164-1.185-0.491s-0.491-0.723-0.491-1.185c0-0.462,0.162-0.857,0.486-1.185S151.116,30.081,151.585,30.081z"/>
	<path fill="#FFFFFF" d="M163.4,38.647l-0.931-0.042c-0.069-0.979-0.271-1.659-0.605-2.038c-0.334-0.379-0.757-0.569-1.267-0.569
		c-0.635,0-1.142,0.241-1.521,0.723c-0.503,0.647-0.755,1.581-0.755,2.8c0,1.247,0.276,2.194,0.828,2.841
		c0.551,0.647,1.21,0.971,1.976,0.971c0.338,0,0.678-0.054,1.019-0.161c0.342-0.107,0.798-0.315,1.371-0.625L164,43.334
		c-1.152,0.896-1.995,1.464-2.53,1.702c-0.535,0.238-1.105,0.357-1.712,0.357c-1.228,0-2.245-0.429-3.052-1.288
		c-0.807-0.858-1.21-2.022-1.21-3.492c0-1.565,0.472-2.911,1.417-4.035c0.945-1.125,2.259-1.687,3.941-1.687
		c0.973,0,2.021,0.258,3.146,0.776c-0.138,0.552-0.272,1.204-0.403,1.956C163.514,38.064,163.448,38.406,163.4,38.647z"/>
</g>
<path fill-rule="evenodd" clip-rule="evenodd" fill="#FFFFFF" d="M11.329,1.653c0.686,0.021,1.392,0.108,1.916,0.102
	c-0.013,0.065-0.154,0.002-0.1,0.134c0.362,0.235,1.022-0.034,1.311,0.269c-0.02,0.141-0.324,0.049-0.404,0.034
	c-0.121-0.073-0.033,0.228-0.1,0.101c-0.272,0.022,0.066-0.198-0.168-0.235c-0.278,0.414,0.649,0.64,0.907,0.638
	c0.183,0.212,0.125,0.457,0.336,0.639c0.044,0.261-0.181,0.458,0,0.74c0.029,0.124,0.228-0.103,0.135,0
	c-0.154,0.449-0.705-0.264-0.941,0.066c-0.32-0.045-0.463-0.261-0.706-0.235c-0.065-0.003,0.052-0.125-0.034-0.168
	c-0.123-0.023-0.255-0.036-0.369-0.068c-0.143-0.019-0.115,0.132-0.236,0.134c-0.753-0.097-1.473,0.378-2.252,0.236
	c-0.258-0.047-0.513-0.275-0.807-0.37c-0.446-0.143-0.799-0.212-1.042-0.47C8.69,3.177,8.836,3.11,8.807,3.032
	C8.629,2.963,8.417,2.931,8.168,2.932c-0.107,0.12,0.238,0.074,0.302,0.134C8.315,3.151,8.148,3.089,7.933,3.099
	c-1.724,0.087-2.571,1.268-3.529,2.32c-0.32,0.352-0.83,0.781-0.908,1.143C3.396,7.023,3.449,7.463,3.328,7.873
	C3.256,8.113,3.071,8.297,2.992,8.545C2.933,8.728,2.978,8.856,2.824,8.982c0.233,0.831,0.367,1.762,0.639,2.555
	c0.036,0.085,0.085-0.189,0.167-0.068c0.246,0.236-0.012,0.657,0.034,1.009c0.018,0.142,0.156,0.213,0.235,0.37
	C3.931,12.909,3.904,13,3.933,13.049c0.173,0.297,0.523,0.537,0.673,0.808c0.366,0.668,0.57,1.783,0.807,2.622
	c0.483,1.712,1.157,3.283,1.748,5.042c0.292,0.871,0.675,1.834,0.739,2.656c0.009,0.115-0.047,0.237-0.034,0.336
	c0.016,0.104,0.11,0.197,0.135,0.303c0.125,0.519-0.008,1.496,0.033,2.117c0.087,1.288,0.162,2.911,0.101,4.269
	c-0.019,0.423,0.011,0.872-0.067,1.211c-0.068,0.295-0.27,0.54-0.303,0.839c-0.025,0.231,0.01,0.481,0,0.707
	c-0.129,2.932-0.989,5.566-1.714,8.202c-0.352,1.276-0.645,2.638-1.008,3.968c-0.417,1.524-0.851,2.999-0.875,4.571
	c-0.238,0.025-0.464,0.404-0.572,0.337c0.055,0.008,0.058-0.034,0.101-0.035c-0.226-0.389-0.397-0.752-0.437-1.244
	c-0.01-0.121,0.03-0.27,0-0.404c-0.062-0.273-0.222-0.456-0.269-0.706c-0.085-0.451-0.19-1.202-0.135-1.782
	c0.062-0.641,0.206-1.25,0.235-1.916c0.013-0.298-0.027-0.597,0.033-0.909c0.029-0.155-0.052-0.034-0.066-0.1
	c0.268-2.11,0.739-3.984,1.21-5.916c0.149-0.614,0.397-1.246,0.47-1.883c0.105-0.915-0.041-2.156,0.437-2.757
	c0.034-0.251-0.044-0.526,0-0.807c0.018-0.104,0.107-0.195,0.135-0.302c0.122-0.465,0.043-1.021,0.067-1.546
	c0.03-0.658,0.048-1.305,0.035-1.984c-0.143,0.059-0.035-0.522,0.067-0.638c-0.103-0.581-0.126-1.239-0.404-1.647
	c-0.01-0.122,0.006-0.219,0.034-0.302c-0.106,0.116-0.108,0.34-0.269,0.403c-0.133-0.898-0.42-1.643-0.639-2.454
	c-0.077,0.091-0.012,0.324-0.034,0.471c-0.172-1.628-0.352-3.34-0.807-4.706c-0.389-1.165-0.956-2.219-1.345-3.395
	C1.232,14.106,0.48,11.783,0,9.015V7.637c0.13-0.512,0.022-0.975,0.101-1.445c0.093-0.555,0.661-1.304,1.076-1.647
	C1.327,4.42,1.51,4.276,1.714,4.31C1.656,2.783,2.51,1.814,3.463,1.116c1.02-0.749,2.441-1.325,3.866-1.042
	C6.681,0.098,6.126,0.216,5.647,0.41C5.942,0.332,6.316,0.48,6.59,0.342c0.009,0.06-0.108,0.182,0.033,0.168
	C7.344,0.733,7.506,0.158,8.135,0.31C8.142,0.41,8.01,0.423,8.101,0.511c0.133,0.058,0.281,0.102,0.405,0.168
	c0.066,0.129-0.06,0.254,0.202,0.202c0.138,0.104-0.113-0.188,0.1-0.202c0.419,0.03,0.712,0.185,1.042,0.302 M13.917,3.805
	c-0.001,0.067-0.091,0.043-0.067,0.136c0.09,0.044,0.179,0.09,0.269,0.134C14.078,3.946,13.86,3.932,13.917,3.805 M4.74,1.082
	c0.038-0.085,0.083-0.163,0.135-0.235c0.237-0.143,0.45-0.312,0.739-0.403c-0.41,0.095-0.978,0.322-1.278,0.638
	C4.409,1.222,4.639,1.119,4.74,1.082 M11.631,1.788c0.57-0.07-0.341-0.057-0.37,0C11.231,1.85,11.739,1.774,11.631,1.788
	 M13.783,3.838c0.129-0.31-0.788-0.544-1.143-0.47C13.008,3.538,13.459,3.624,13.783,3.838"/>
<path fill-rule="evenodd" clip-rule="evenodd" fill="#FFFFFF" d="M25.715,52.917c0.152-0.251,0.58-0.227,0.807-0.402
	c0.155-0.024-0.052-0.112,0.034-0.136c0.501-0.327,0.938-0.798,1.142-1.478c0.089-0.298,0.237-0.684,0.235-0.942
	c0-0.113-0.081-0.257-0.101-0.369c-0.057-0.324-0.072-0.721-0.101-1.109c-0.027-0.367-0.124-0.752-0.135-1.075
	c-0.02-0.642,0.083-1.228-0.101-1.749c-0.11-0.31-0.507-0.893-0.604-1.042c-1.186-3.118-1.484-7.12-2.321-10.588
	c0.132,0.125,0.061-0.458,0.202-0.537c-0.183-0.416-0.151-0.887-0.135-1.278c0.026-0.574-0.13-1.233-0.201-1.849
	c-0.073-0.638-0.167-1.265-0.168-1.915c-0.01-0.111-0.117,0.145-0.101-0.034c0.228-0.937-0.183-1.996-0.235-2.924
	c-0.043,0.167-0.145,0.425-0.269,0.403c-0.071-0.982-0.11-1.997-0.235-2.924c-0.021,0.237-0.072,0.444-0.135,0.638
	c0.637-3.776,1.429-7.906,2.623-11.295c0.403-1.146,0.919-2.429,1.008-3.663c0.023-0.32,0.029-0.606,0-0.874
	c-0.099-0.889-0.646-1.178-0.975-1.749c-0.241-0.42-0.354-0.898-0.303-1.512c-0.282-0.024-0.677-0.102-0.94-0.034
	c-0.227-0.199-0.431-0.421-0.707-0.571c-0.062,0.143,0.177,0.156,0.102,0.202c-0.794-0.088-1.613,0.268-2.219,0.369
	c0.419-0.255,0.92-0.461,1.412-0.639c0.136-0.048,0.407-0.078,0.437-0.269c-0.322-0.132-0.531,0.329-0.908,0.403
	c-0.202,0.041-0.39-0.105-0.537,0.102c-0.067-0.024,0.021-0.201-0.102-0.168c-0.203,0.055-0.419,0.095-0.57,0.202
	c-0.052,0.221-0.115,0.445-0.438,0.47c-0.054-0.006,0.055-0.159-0.101-0.134c-0.361,0.149-0.462-0.131-0.672,0.034
	c-0.091,0.051,0.2-0.001,0.101,0.168c-0.279,0.292-0.698,0.444-1.076,0.638c-0.038,0.25-0.292,0.335-0.437,0.504
	c-0.176,0.204-0.278,0.506-0.538,0.638c-0.103-0.028-0.081-0.094-0.202-0.034c-0.223,0.158-0.401,0.541-0.672,0.539
	c0.078-0.27,0.331-0.363,0.37-0.672c-0.07-0.042-0.166,0.104-0.236,0.167C17.417,6.701,17.083,7,16.707,7.133
	c-0.073-0.004-0.072-0.084-0.067-0.168c-0.099,0.074-0.199,0.175-0.302,0.236c-0.725,0.431-1.671,0.971-2.69,0.942
	c-0.071,0.084-0.184,0.129-0.37,0.1c0.038-0.041,0.096-0.062,0.067-0.168c-0.417-0.168-1.171,0.207-1.377-0.168
	c0.232-0.02,0.469-0.039,0.537-0.134c0.188-0.014-0.103,0.253,0.135,0.202c0.235-0.115-0.07-0.286-0.135-0.403
	c-0.362,0.017-0.705-0.185-0.94,0c-0.267-0.119-0.424-0.138-0.606-0.336c-0.452,0.241-0.521-0.428-1.075-0.303
	c-0.13,0.038,0.129,0.13,0,0.168c-0.358-0.279,0.166-0.572,0.303-0.773c0.046-0.177-0.298-0.081-0.169-0.235
	c0.029-0.217,0.361-0.132,0.538-0.202c0.075-0.026-0.006-0.208,0.135-0.168c0.27,0.092,0.258,0.079,0.404,0.269
	c0.293,0.086,0.74,0.021,0.874,0.27c-0.144,0.029-0.299-0.104-0.403,0c0.276,0.068,0.346,0.167,0.604,0.033
	c0.433,0.094,0.82,0.412,1.378,0.268c-0.389-0.093-0.729-0.233-1.076-0.369c0.156,0.01,0.291,0,0.37-0.067
	c-0.073,0.253,0.217,0.142,0.336,0.202c0.097-0.004,0.033-0.137,0.168-0.169c0.616-0.1,0.898-0.534,1.344-0.806
	c0.181,0.002,0.279-0.075,0.471-0.034c0.074-0.082,0.135-0.177,0.269-0.202c0.308,0.08,0.409-0.257,0.571-0.033
	c0.073-0.085,0.084-0.231,0.202-0.27c0.544-0.069,0.749-0.423,1.109-0.705c0.771-0.604,1.592-1.085,2.354-1.647
	c-0.196-0.113-0.312,0.278-0.505,0.168c1.417-0.92,2.773-2.147,4.774-2.219c1.396-0.049,2.299,0.716,3.093,1.412
	c0.516,0.453,0.866,1.136,1.276,1.714c0.376,0.53,1.065,1.177,1.244,1.782c0.124,0.416,0.066,1.072,0.236,1.513v0.101h-0.034
	c-0.129,0.332-0.032,0.778,0.034,1.109v0.908h-0.034c0.053,0.589-0.351,1.205-0.336,1.714c0.005,0.167-0.007,0.038,0.034,0.068
	c0.35,0.253-0.404,0.867-0.471,1.142c-0.134,0.545,0.047,1.045,0,1.613c-0.031,0.371-0.229,0.827-0.37,1.245
	c-0.392,1.157-0.915,2.343-1.21,3.563c-0.455,1.879-0.159,3.697-0.436,5.95c0.169,0.81-0.151,1.541-0.135,2.353
	c0.016,0.843,0.183,1.73,0.269,2.589c0.043,0.43,0.086,0.878,0.135,1.311c0.047,0.427,0.141,0.884,0.134,1.277
	c-0.004,0.291-0.113,0.56-0.1,0.84c0.023,0.514,0.201,1.058,0.302,1.613c0.292,1.602,0.563,3.313,0.806,4.942
	c0.166,1.102,0.296,2.231,0.54,3.295c0.111,0.491,0.292,0.996,0.402,1.513c0.117,0.548,0.315,1.079,0.336,1.581
	c0.106,2.625-0.604,5.097-1.816,6.621c-0.437,0.268-0.763,0.648-1.378,0.74H25.715z M10.187,6.058
	c0.08,0.021,0.152,0.048,0.268,0.034c0.025-0.269,0.349,0.087,0.437-0.034C10.725,5.89,10.364,5.898,10.187,6.058 M15.06,7.738
	c0.098-0.07,0.261-0.076,0.336-0.167C15.261,7.583,15.044,7.688,15.06,7.738"/>
<path fill-rule="evenodd" clip-rule="evenodd" fill="#FFFFFF" d="M12.808,28.646c-0.091,0.258-0.394,0.593-0.538,0.908
	c0.033,0.069,0.129,0.073,0.235,0.067c-0.008-0.091-0.064-0.356,0.034-0.504c0.109-0.049,0.311-0.002,0.303-0.168
	c0.113,0.171,0.276,0.048,0.403-0.035c-0.001-0.127-0.176-0.201-0.067-0.336c0.14,0.078,0.491-0.016,0.639,0.135
	c0.102-0.118-0.162-0.085-0.134-0.235c0.383-0.188,0.501-0.437,0.638-0.874c0.133-0.044,0.068,0.11,0.202,0.067
	c0.061-0.097,0.059-0.256,0.235-0.235c-0.018,0.189-0.04,0.26,0.035,0.403c0.092-0.132,0.225-0.224,0.269-0.403
	c0.09,0.056,0.157-0.054,0.201,0.067c0.373-0.188,0.294-0.827,0.739-0.942c0.062-0.054-0.024-0.106,0.068-0.167
	c0.074,0.026,0.044,0.158,0.134,0.167c0.237,0.002,0.161-0.309,0.437-0.268c0.077,0.138-0.116,0.256-0.033,0.334
	c-0.115,0.025-0.056-0.124-0.135-0.133c-0.039,0.152,0.266,0.375,0.47,0.202c0.087-0.008-0.046-0.057,0-0.135
	c0.173,0,0.197-0.048,0.27,0.066c0.053-0.195,0.227-0.038,0.335,0c0.067,0.018,0.108-0.153,0.035-0.167
	c0.163,0.135,0.235,0.81,0.268,1.077c0.121-0.188,0.03,0.236,0.102,0.302c0.006,0.146-0.114-0.031-0.135-0.067
	c-0.218,0.223-0.548-0.137-0.874,0c0.068,0.152,0.532,0.064,0.471,0.236c-0.015,0.18-0.084-0.173-0.168-0.034
	c-0.036,0.159-0.039,0.599-0.034,0.907c-0.042,0.055-0.292-0.035-0.202,0.135c-0.202-0.061-0.286,0.136-0.37,0
	c-0.071,0.01,0.048,0.09-0.033,0.134c-0.574,0.043-0.776,0.458-1.11,0.74c0.151,0.05,0.104-0.099,0.236-0.067
	c-0.518,0.806-0.697,1.946-1.513,2.454c0.016,0.196,0.065,0.36,0.101,0.538c-0.147,0.155-0.173,0.433-0.437,0.471
	c0.088,0.411-0.027,0.762-0.067,1.143c0.05,0.059,0.145-0.035,0.202,0.068c-0.076,0.148-0.175,0.272-0.371,0.301
	c0.015,0.313,0.141,0.476,0.27,0.739c-0.123,0.861-0.895,1.304-0.975,2.119c-0.059,0.593,0.221,1.429-0.034,1.983
	c0.019,0.071,0.084,0.097,0.068,0.202c-0.411,0.688-0.417,1.78-0.639,2.656c-0.062,0.128-0.201,0.18-0.269,0.302
	c-0.024,2.9-0.872,5.252-2.017,6.958c-0.204,0.11-0.202,0.426-0.538,0.404C9.486,50.02,9.488,49.85,9.379,49.79
	c0.081-0.289-0.064-0.616,0.034-0.906c-0.566-0.573-0.108-1.587-0.438-2.32c-0.101-1.514,0.467-2.701,0.27-4.001
	c0.096,0.032,0.143-0.133,0.301-0.135c0.024-0.146-0.056-0.189-0.032-0.335c0.305-0.322,0.199-1.056,0.402-1.48
	c-0.008-0.037-0.066-0.022-0.067-0.067c0.021-0.102,0.075-0.171,0.202-0.167c-0.003-0.304-0.129-0.649-0.135-0.84
	c-0.061,0.05-0.188,0.034-0.235,0.1c-0.111-0.337-0.121-0.775-0.201-1.143c-0.054,0.07-0.11,0.136-0.135,0.235
	c0.33-0.796,0.584-1.693,0.909-2.622c0.465-1.333,1.28-2.719,0.672-4.471c0.201-0.313,0.407-0.622,0.941-0.605
	C11.159,30.178,11.999,28.982,12.808,28.646"/>
<path fill-rule="evenodd" clip-rule="evenodd" fill="#FFFFFF" d="M19.9,33.488c-0.059,0.077,0.194,0.32-0.034,0.335
	c0.188,0.036,0.034,0.266,0.101,0.371c0.053-0.071,0.07-0.177,0.067-0.303c0.028,0.214,0.332,0.276,0.572,0.369
	c0.011,0.413,0.077,0.737,0.167,1.245c0.061,0.009,0.069-0.032,0.034-0.034c0.145,0.053,0.21,0.306,0.302,0.504
	c0.095,0.202,0.217,0.429,0.236,0.639c0.022,0.249-0.111,0.49,0.168,0.572c-0.049,0.394,0.103,0.506,0.202,0.806
	c0.029,0.099,0.05,0.038,0.135,0.035c0.037,0.148-0.057,0.167-0.068,0.269c0.185,0.138,0.315,0.281,0.337,0.538
	c0.022,0.271-0.073,0.531-0.034,0.773c0.074,0.457,0.421,0.762,0.47,1.176c0.01,0.081-0.035,0.186-0.033,0.269
	c0.005,0.31,0.21,0.603,0.235,0.874c0.004,0.057-0.045,0.144-0.034,0.202c0.088,0.471,0.355,0.848,0.403,1.345
	c0.116,1.185-0.072,2.015-0.773,2.723c-0.1-0.157-0.117-0.398-0.1-0.672c-0.119-0.127-0.114-0.38-0.235-0.504
	c0.146-0.248-0.058-0.365-0.134-0.573c-0.216-0.583-0.131-1.383-0.505-1.747c0.034-0.045,0.056-0.102,0.101-0.135
	c-0.293-0.478-0.074-1.306-0.572-1.378c-0.034-0.11-0.19-0.423-0.235-0.303c-0.165-1.167,0.018-2.684-0.874-3.126
	c-0.033-0.258,0.065-0.383,0.168-0.505c-0.474-0.028-0.553-0.479-0.471-0.975c0.086,0.003,0.055,0.126,0.101,0.168
	c0.091-0.081,0.038-0.111,0.134-0.203c0.03-0.107-0.11-0.045-0.134-0.1c0.022-0.102,0.132-0.114,0.168-0.202
	c-0.09-0.247-0.206-0.449-0.27-0.638c0.042-0.103,0.116,0.035,0.202,0c-0.054-0.333-0.178-0.489-0.471-0.707
	c0.121-0.124,0.013-0.175-0.033-0.302c0.099-0.055,0.135,0.08,0.235,0c0.009-0.168-0.217-0.275-0.101-0.437
	c0.01-0.042-0.098-0.117-0.101-0.035C19.293,33.674,19.648,33.465,19.9,33.488"/>
</svg>
