<?xml version="1.0" encoding="utf-8"?>
<!-- Generator: Adobe Illustrator 15.0.0, SVG Export Plug-In . SVG Version: 6.00 Build 0)  -->
<!DOCTYPE svg PUBLIC "-//W3C//DTD SVG 1.1//EN" "http://www.w3.org/Graphics/SVG/1.1/DTD/svg11.dtd">
<svg version="1.1" id="Layer_1" xmlns="http://www.w3.org/2000/svg" xmlns:xlink="http://www.w3.org/1999/xlink" x="0px" y="0px"
	 width="100px" height="30.153px" viewBox="0 0 100 30.153" enable-background="new 0 0 100 30.153" xml:space="preserve">
<path fill="#FFFFFF" d="M20.545,16.009c-0.036-3.803,3.126-5.654,3.272-5.74c-1.792-2.6-4.568-2.956-5.541-2.984
	c-2.333-0.244-4.593,1.39-5.781,1.39c-1.211,0-3.039-1.365-5.01-1.326c-2.535,0.04-4.909,1.5-6.21,3.771
	c-2.686,4.629-0.683,11.434,1.89,15.172c1.286,1.835,2.79,3.878,4.758,3.808c1.926-0.076,2.645-1.224,4.969-1.224
	c2.302,0,2.978,1.224,4.985,1.177c2.067-0.029,3.369-1.84,4.61-3.688c1.487-2.102,2.085-4.169,2.109-4.275
	C24.549,22.072,20.583,20.568,20.545,16.009z"/>
<path fill="#FFFFFF" d="M16.751,4.825C17.786,3.536,18.497,1.78,18.299,0c-1.5,0.066-3.374,1.033-4.454,2.295
	c-0.954,1.111-1.808,2.933-1.587,4.646C13.941,7.066,15.671,6.096,16.751,4.825z"/>
<g>
	<path fill="#FFFFFF" d="M40.405,15.196c0,0.451-0.147,0.815-0.442,1.097c-0.295,0.278-0.675,0.417-1.143,0.417
		c-0.418,0-0.771-0.143-1.06-0.431c-0.286-0.287-0.43-0.647-0.43-1.083c0-0.435,0.147-0.792,0.442-1.071
		c0.295-0.279,0.661-0.419,1.095-0.419c0.436,0,0.801,0.14,1.096,0.419C40.257,14.404,40.405,14.76,40.405,15.196z M40.125,29.896
		h-2.515V18.575h2.515V29.896z"/>
	<path fill="#FFFFFF" d="M53.709,16.314h-4.521v13.582h-2.517V16.314h-4.474v-2.12h11.509v2.12H53.709z"/>
	<path fill="#FFFFFF" d="M64.146,29.896h-2.211l-0.142-1.724h-0.045c-0.794,1.32-1.989,1.98-3.59,1.98
		c-1.117,0-2.012-0.35-2.681-1.047c-0.789-0.856-1.187-2.144-1.187-3.868v-6.663h2.517v6.242c0,2.178,0.745,3.266,2.238,3.266
		c1.116,0,1.893-0.545,2.333-1.631c0.107-0.28,0.162-0.601,0.162-0.956v-6.921h2.517v8.062
		C64.054,27.705,64.083,28.793,64.146,29.896z"/>
	<path fill="#FFFFFF" d="M77.426,29.896h-2.517v-6.501c0-2.002-0.764-3.005-2.288-3.005c-0.743,0-1.352,0.274-1.814,0.828
		c-0.465,0.551-0.699,1.199-0.699,1.943v6.732h-2.516v-8.087c0-0.992-0.032-2.072-0.094-3.238h2.214l0.118,1.749h0.071
		c0.294-0.545,0.728-0.994,1.305-1.351c0.679-0.421,1.441-0.631,2.281-0.631c1.057,0,1.934,0.341,2.634,1.024
		c0.867,0.839,1.303,2.088,1.303,3.752L77.426,29.896L77.426,29.896z"/>
	<path fill="#FFFFFF" d="M90.239,23.7c0,0.45-0.031,0.831-0.096,1.142h-7.547c0.03,1.118,0.397,1.975,1.098,2.564
		c0.636,0.526,1.46,0.789,2.471,0.789c1.117,0,2.134-0.175,3.051-0.534l0.396,1.747c-1.069,0.466-2.338,0.699-3.798,0.699
		c-1.757,0-3.135-0.517-4.135-1.549c-1.003-1.033-1.502-2.42-1.502-4.157c0-1.706,0.467-3.128,1.396-4.261
		c0.979-1.212,2.3-1.817,3.963-1.817c1.628,0,2.864,0.605,3.703,1.817C89.905,21.098,90.239,22.286,90.239,23.7z M87.839,23.048
		c0.015-0.748-0.149-1.39-0.489-1.935c-0.434-0.702-1.103-1.051-2.004-1.051c-0.821,0-1.49,0.342-2.001,1.025
		c-0.421,0.543-0.669,1.196-0.749,1.955h5.243V23.048z"/>
	<path fill="#FFFFFF" d="M100,26.633c0,1.057-0.39,1.903-1.165,2.538c-0.776,0.638-1.848,0.959-3.216,0.959
		c-1.29,0-2.385-0.257-3.283-0.77l0.533-1.863c0.87,0.528,1.795,0.793,2.774,0.793c1.288,0,1.933-0.475,1.933-1.422
		c0-0.417-0.138-0.764-0.417-1.037c-0.278-0.269-0.777-0.539-1.492-0.804c-2.019-0.747-3.027-1.833-3.027-3.261
		c0-0.981,0.373-1.795,1.117-2.446c0.746-0.654,1.734-0.979,2.959-0.979c1.118,0,2.074,0.223,2.869,0.676l-0.538,1.794
		c-0.729-0.434-1.499-0.651-2.307-0.651c-0.527,0-0.939,0.122-1.233,0.372c-0.298,0.247-0.444,0.563-0.444,0.955
		c0,0.391,0.156,0.708,0.467,0.954c0.265,0.233,0.776,0.492,1.538,0.77C99.021,23.955,100,25.096,100,26.633z"/>
</g>
</svg>
