<?xml version="1.0" encoding="utf-8"?>
<!-- Generator: Adobe Illustrator 15.0.0, SVG Export Plug-In . SVG Version: 6.00 Build 0)  -->
<!DOCTYPE svg PUBLIC "-//W3C//DTD SVG 1.1//EN" "http://www.w3.org/Graphics/SVG/1.1/DTD/svg11.dtd">
<svg version="1.1" id="Layer_1" xmlns="http://www.w3.org/2000/svg" xmlns:xlink="http://www.w3.org/1999/xlink" x="0px" y="0px"
	 width="1056.231px" height="93.714px" viewBox="0 0 1056.231 93.714" enable-background="new 0 0 1056.231 93.714"
	 xml:space="preserve">
<g>
	<path fill="#FFFFFF" d="M35.689,38.426l-0.685,2.192H23.222L12.947,77.608c-0.548,2.191-0.822,4.02-0.822,5.479
		c0,4.294,1.963,6.438,5.891,6.438c1.918,0,3.973-0.798,6.165-2.396c2.192-1.598,4.063-3.857,5.617-6.782
		c0.364-0.821,0.867-1.233,1.507-1.233c0.548,0,0.822,0.367,0.822,1.097c0,0.366-0.047,0.64-0.137,0.821
		c-1.644,3.563-4.042,6.555-7.193,8.975c-3.151,2.418-7.192,3.63-12.125,3.63c-3.836,0-6.805-1.027-8.905-3.083
		c-2.102-2.055-3.151-4.863-3.151-8.425c0-1.644,0.274-3.515,0.822-5.617L11.44,40.618H1.987l0.685-2.192h9.453l5.069-18.632
		l12.604-2.877l-5.891,21.509H35.689z"/>
	<path fill="#FFFFFF" d="M104.873,38.426h22.194L115.559,79.8c-0.548,1.918-0.822,3.518-0.822,4.795
		c0,1.918,0.638,2.877,1.918,2.877c2.648,0,6.621-4.566,11.919-13.699c0.274-0.457,0.638-0.686,1.096-0.686
		c0.456,0,0.685,0.273,0.685,0.822l-0.274,0.822c-1.554,2.832-3.038,5.411-4.453,7.74c-1.417,2.328-2.877,4.315-4.384,5.959
		c-1.507,1.645-3.106,2.924-4.795,3.836c-1.691,0.912-3.631,1.37-5.823,1.37c-0.914,0-1.828-0.092-2.74-0.274
		c-0.914-0.184-1.713-0.525-2.397-1.027c-0.685-0.5-1.257-1.254-1.713-2.26c-0.458-1.004-0.685-2.329-0.685-3.973
		c0-1.187,0.114-2.535,0.343-4.042c0.227-1.507,0.617-3.265,1.165-5.274L114.6,40.618h-10.275L104.873,38.426z M132.41,17.67
		c-1.28,1.599-3.198,2.397-5.754,2.397c-2.284,0-3.973-0.662-5.069-1.986c-1.096-1.323-1.644-2.854-1.644-4.59
		c0-1.826,0.638-3.538,1.918-5.137c1.278-1.597,3.196-2.397,5.754-2.397c2.282,0,3.973,0.664,5.069,1.986
		c1.096,1.325,1.644,2.855,1.644,4.589C134.328,14.361,133.688,16.073,132.41,17.67z"/>
	<path fill="#FFFFFF" d="M271.875,40.344c-1.918,0-3.836,0.548-5.754,1.644c-1.918,1.096-3.699,2.49-5.343,4.179
		c-1.644,1.691-3.061,3.562-4.247,5.617c-1.188,2.055-2.055,3.997-2.603,5.823l-9.453,34.523h-11.782l10.138-36.99
		c0.456-1.552,0.73-2.99,0.822-4.315c0.09-1.323,0.137-2.534,0.137-3.63c0-2.1-0.458-3.789-1.37-5.069
		c-0.914-1.278-2.284-1.918-4.11-1.918c-1.736,0-3.562,0.595-5.48,1.781c-1.918,1.188-3.723,2.65-5.412,4.384
		c-1.691,1.736-3.198,3.585-4.521,5.548c-1.325,1.965-2.261,3.723-2.809,5.274L210.5,92.13h-11.645l14.248-51.512h-8.905
		l0.685-2.192h20.55l-2.603,9.453c1.004-1.37,2.145-2.716,3.425-4.042c1.278-1.323,2.74-2.487,4.384-3.494
		c1.644-1.004,3.539-1.826,5.686-2.466c2.145-0.638,4.59-0.959,7.33-0.959c4.018,0,7.077,0.846,9.179,2.535
		c2.1,1.691,3.151,4.407,3.151,8.151c1.004-1.278,2.168-2.556,3.494-3.836c1.323-1.278,2.808-2.419,4.452-3.425
		c1.644-1.004,3.494-1.826,5.549-2.466c2.055-0.638,4.36-0.959,6.918-0.959c2.282,0,4.223,0.366,5.822,1.096
		c1.597,0.732,2.877,1.668,3.836,2.809c0.959,1.143,1.666,2.49,2.124,4.042c0.456,1.554,0.685,3.151,0.685,4.795
		c0,2.01-0.274,3.883-0.822,5.617l-7.124,25.894c-0.366,1.28-0.595,2.308-0.685,3.083c-0.092,0.776-0.137,1.484-0.137,2.123
		c0,2.466,0.959,3.699,2.877,3.699c2.1,0,4.384-1.553,6.85-4.658c2.466-3.104,5.069-7.077,7.809-11.919
		c0.274-0.456,0.593-0.685,0.959-0.685c0.638,0,0.959,0.365,0.959,1.096c0,0.184-0.092,0.458-0.274,0.822
		c-1.28,2.283-2.582,4.544-3.904,6.781c-1.325,2.238-2.74,4.27-4.247,6.096c-1.507,1.828-3.22,3.313-5.138,4.453
		s-4.11,1.713-6.576,1.713c-1.462,0-2.832-0.138-4.11-0.412c-1.28-0.273-2.397-0.753-3.356-1.438
		c-0.959-0.686-1.736-1.598-2.329-2.74c-0.595-1.141-0.89-2.58-0.89-4.316c0-1.277,0.09-2.465,0.274-3.562
		c0.182-1.096,0.501-2.419,0.959-3.973l6.165-21.646c0.456-1.553,0.798-2.967,1.027-4.248c0.227-1.278,0.342-2.466,0.342-3.562
		C277.492,42.857,275.619,40.344,271.875,40.344z"/>
	<path fill="#FFFFFF" d="M419.56,83.499c-0.366,1.096-0.548,2.191-0.548,3.288c0,1.096,0.25,1.849,0.754,2.261
		c0.5,0.41,1.164,0.616,1.986,0.616c1.644,0,3.72-1.142,6.233-3.425c2.511-2.282,5.138-6.211,7.877-11.782
		c0.364-0.729,0.822-1.097,1.37-1.097c0.638,0,0.959,0.322,0.959,0.959c0,0.274-0.047,0.527-0.137,0.754
		c-0.092,0.229-0.229,0.479-0.411,0.754c-1.28,2.466-2.603,4.795-3.973,6.986c-1.37,2.192-2.9,4.089-4.589,5.686
		c-1.691,1.6-3.562,2.855-5.617,3.768c-2.055,0.912-4.453,1.37-7.192,1.37c-3.198,0-5.435-0.821-6.713-2.466
		c-1.28-1.645-1.918-4.063-1.918-7.262c-0.732,1.007-1.691,2.079-2.877,3.221c-1.188,1.143-2.558,2.191-4.11,3.15
		c-1.554,0.959-3.288,1.76-5.206,2.397s-3.928,0.959-6.028,0.959c-3.198,0-6.052-0.708-8.563-2.124
		c-2.513-1.414-4.637-3.264-6.371-5.548c-1.736-2.282-3.061-4.863-3.973-7.74c-0.914-2.878-1.37-5.775-1.37-8.7
		c0-4.199,0.912-8.265,2.74-12.192c1.826-3.926,4.224-7.398,7.193-10.412c2.967-3.014,6.347-5.433,10.138-7.261
		c3.789-1.826,7.604-2.74,11.439-2.74c4.292,0,7.786,1.051,10.48,3.151c2.693,2.102,4.498,5.024,5.412,8.768l3.014-10.412h12.33
		L419.56,83.499z M414.765,53.359c0-1.918-0.343-3.744-1.028-5.48c-0.685-1.734-1.599-3.265-2.74-4.589
		c-1.143-1.323-2.445-2.351-3.905-3.083c-1.462-0.73-2.969-1.096-4.521-1.096c-1.644,0-3.312,0.411-5,1.233
		c-1.691,0.822-3.174,2.055-4.452,3.699c-1.096,1.462-2.284,3.562-3.562,6.302c-1.28,2.74-2.466,5.754-3.562,9.042
		c-1.096,3.288-1.987,6.692-2.672,10.206c-0.685,3.518-1.027,6.829-1.027,9.934c0,4.109,0.617,7.123,1.85,9.041
		s3.264,2.877,6.096,2.877c2.1,0,4.453-0.637,7.056-1.918c2.603-1.277,4.816-2.83,6.645-4.658c1.46-1.459,2.58-3.172,3.356-5.137
		c0.775-1.963,1.528-4.131,2.261-6.508l4.658-15.617C414.581,56.51,414.765,55.095,414.765,53.359z"/>
	<path fill="#FFFFFF" d="M531.898,42.81c1.004-1.096,2.191-2.077,3.562-2.946c1.37-0.867,2.922-1.575,4.658-2.124
		c1.734-0.548,3.744-0.822,6.028-0.822c1.37,0,2.716,0.161,4.041,0.479c1.323,0.321,2.487,0.822,3.494,1.507
		c1.004,0.685,1.825,1.599,2.466,2.74c0.638,1.143,0.959,2.582,0.959,4.315c0,2.832-0.846,4.818-2.535,5.959
		c-1.69,1.143-3.356,1.712-5,1.712c-2.376,0-4.294-0.707-5.754-2.124c-1.462-1.415-2.192-3.219-2.192-5.412
		c0-1.644,0.456-3.082,1.37-4.315c0.912-1.233,1.781-2.076,2.604-2.534h-0.959c-1.828,0-3.723,0.548-5.686,1.644
		c-1.966,1.096-3.791,2.444-5.48,4.042c-1.691,1.599-3.175,3.312-4.452,5.137c-1.28,1.828-2.103,3.472-2.466,4.932L516.144,92.13
		h-11.646l14.111-51.375h-7.672l0.548-2.329h19.591l-2.055,7.535C529.934,44.957,530.893,43.906,531.898,42.81z"/>
	<path fill="#FFFFFF" d="M689.723,73.772c0,0.092-0.093,0.41-0.274,0.959c-1.462,2.832-2.855,5.411-4.179,7.74
		c-1.324,2.328-2.694,4.339-4.109,6.027c-1.417,1.691-2.97,2.993-4.658,3.904c-1.691,0.912-3.678,1.371-5.96,1.371
		c-2.924,0-5.229-0.801-6.918-2.398c-1.691-1.597-2.534-4.086-2.534-7.467c0-1.004,0.113-2.168,0.342-3.492
		c0.228-1.324,0.707-3.402,1.438-6.234l4.384-16.029c0.73-2.829,1.278-5.09,1.645-6.781c0.364-1.689,0.548-3.172,0.548-4.453
		c0-2.374-0.595-4.155-1.781-5.343c-1.188-1.186-2.558-1.781-4.109-1.781c-1.555,0-3.243,0.571-5.069,1.712
		c-1.828,1.143-3.609,2.603-5.343,4.384c-1.736,1.781-3.288,3.791-4.658,6.028c-1.37,2.239-2.376,4.453-3.014,6.645l-9.316,33.564
		h-11.645l14.11-51.512h-8.768l0.411-2.192h20.687l-2.466,9.042c0.73-1.004,1.597-2.124,2.604-3.356
		c1.004-1.233,2.281-2.374,3.836-3.425c1.552-1.049,3.378-1.939,5.479-2.672c2.1-0.729,4.611-1.096,7.535-1.096
		c3.926,0,7.077,0.869,9.453,2.603c2.374,1.736,3.562,4.705,3.562,8.905c0,1.006-0.115,2.216-0.342,3.631
		c-0.229,1.417-0.754,3.678-1.576,6.781l-5.343,19.18c-0.64,2.284-1.051,3.973-1.233,5.069c-0.184,1.097-0.273,2.011-0.273,2.74
		c0,2.284,0.729,3.425,2.191,3.425c1.37,0,3.173-1.254,5.412-3.768c2.236-2.511,4.771-6.508,7.604-11.987
		c0.363-0.638,0.774-0.959,1.232-0.959C689.356,72.539,689.723,72.95,689.723,73.772z"/>
	<path fill="#FFFFFF" d="M772.06,92.335c-2.467-0.867-4.682-2.191-6.645-3.973c-1.966-1.781-3.541-4.018-4.727-6.713
		c-1.188-2.693-1.781-5.912-1.781-9.658c0-4.475,0.844-8.813,2.534-13.016c1.689-4.199,4.019-7.946,6.987-11.234
		c2.967-3.288,6.46-5.912,10.48-7.877c4.018-1.963,8.357-2.945,13.015-2.945c6.303,0,11.393,1.896,15.275,5.686
		c3.882,3.791,5.823,9.11,5.823,15.961c0,5.297-0.982,10.116-2.946,14.453c-1.965,4.339-4.544,8.038-7.74,11.097
		c-3.198,3.062-6.781,5.411-10.754,7.056c-3.974,1.645-7.97,2.466-11.988,2.466C777.036,93.637,774.525,93.202,772.06,92.335z
		 M773.978,60.825c-0.732,2.604-1.438,5.275-2.124,8.015c-0.685,2.74-1.257,5.321-1.712,7.741c-0.459,2.42-0.686,4.27-0.686,5.548
		c0,3.106,0.822,5.435,2.466,6.987c1.645,1.554,4.247,2.328,7.81,2.328c4.474,0,7.877-1.369,10.206-4.109s4.179-6.348,5.549-10.823
		c0.638-2.1,1.37-4.521,2.191-7.261c0.822-2.74,1.576-5.434,2.261-8.083c0.686-2.647,1.255-5.114,1.713-7.398
		c0.456-2.282,0.685-4.018,0.685-5.206c0-2.74-0.776-5-2.329-6.782c-1.554-1.781-4.294-2.671-8.22-2.671
		c-2.466,0-4.568,0.411-6.302,1.233c-1.736,0.822-3.22,1.918-4.453,3.288c-1.232,1.37-2.238,2.969-3.014,4.795
		c-0.777,1.828-1.485,3.746-2.123,5.754C775.347,56.009,774.707,58.222,773.978,60.825z"/>
	<path fill="#FFFFFF" d="M897.962,0.066h21.234l-22.468,80.693c-0.185,0.822-0.321,1.76-0.411,2.809
		c-0.092,1.051-0.137,1.896-0.137,2.535c0,2.283,0.959,3.424,2.877,3.424c1.733,0,3.744-1.254,6.028-3.768
		c2.281-2.51,5.021-6.552,8.22-12.124c0.363-0.638,0.774-0.959,1.232-0.959c0.73,0,1.097,0.366,1.097,1.097
		c0,0.457-0.093,0.776-0.274,0.959c-1.28,2.191-2.558,4.431-3.836,6.713c-1.28,2.283-2.695,4.314-4.247,6.096
		c-1.554,1.781-3.288,3.243-5.206,4.385c-1.918,1.141-4.109,1.712-6.576,1.712c-7.034,0-10.549-3.288-10.549-9.864
		c0-1.277,0.206-2.877,0.617-4.795c0.41-1.918,0.935-4.063,1.575-6.438l19.591-70.281h-9.316L897.962,0.066z"/>
	<path fill="#FFFFFF" d="M1034.07,88.089c0.411,0.595,1.027,0.891,1.85,0.891c1.369,0,3.309-1.097,5.822-3.289
		c2.511-2.191,5.594-6.027,9.247-11.508c0.456-0.548,0.867-0.822,1.233-0.822c0.729,0,1.096,0.367,1.096,1.097
		c0,0.274-0.115,0.571-0.343,0.89c-0.229,0.322-0.435,0.664-0.616,1.028c-1.188,1.828-2.489,3.768-3.904,5.822
		c-1.417,2.056-2.969,3.929-4.658,5.617c-1.691,1.69-3.54,3.083-5.548,4.179c-2.011,1.096-4.202,1.644-6.576,1.644
		c-1.918,0-3.473-0.274-4.658-0.821c-1.188-0.549-2.124-1.278-2.809-2.192c-0.685-0.912-1.164-1.963-1.438-3.151
		c-0.274-1.186-0.458-2.373-0.548-3.563c-0.914,1.097-2.01,2.217-3.288,3.357c-1.28,1.143-2.695,2.191-4.247,3.15
		c-1.554,0.959-3.243,1.734-5.069,2.33c-1.828,0.592-3.698,0.89-5.616,0.89c-7.124,0-12.309-2.031-15.55-6.097
		c-3.243-4.063-4.863-9.385-4.863-15.96c0-3.562,0.843-7.351,2.534-11.371c1.688-4.019,4.086-7.762,7.192-11.234
		c3.104-3.47,6.826-6.347,11.166-8.631c4.337-2.282,9.2-3.425,14.59-3.425c3.563,0,6.461,0.869,8.699,2.603
		c2.237,1.736,3.676,3.517,4.316,5.343l11.781-42.607h-10.96l0.686-2.192h22.604l-22.193,80.282
		c-0.274,1.007-0.435,2.034-0.479,3.083c-0.048,1.051-0.069,1.805-0.069,2.26C1033.453,86.696,1033.659,87.495,1034.07,88.089z
		 M1000.916,61.442c-0.685,2.465-1.37,5.023-2.055,7.672c-0.686,2.65-1.28,5.16-1.781,7.535c-0.503,2.375-0.754,4.109-0.754,5.205
		c0,2.377,0.569,4.568,1.713,6.576c1.141,2.01,3.31,3.014,6.508,3.014c1.644,0,3.446-0.432,5.411-1.301
		c1.963-0.867,3.857-2.055,5.686-3.563c1.826-1.507,3.47-3.264,4.932-5.274c1.46-2.008,2.512-4.11,3.151-6.302l5.754-20.961
		c0.182-0.73,0.319-1.415,0.411-2.055c0.09-0.638,0.137-1.233,0.137-1.781c0-3.47-1.143-6.187-3.425-8.152
		c-2.284-1.963-4.887-2.945-7.809-2.945c-2.376,0-4.432,0.458-6.165,1.37c-1.736,0.914-3.22,2.147-4.453,3.699
		c-1.232,1.554-2.308,3.335-3.219,5.343c-0.914,2.01-1.691,4.065-2.329,6.166C1002.171,57.058,1001.601,58.976,1000.916,61.442z"/>
</g>
</svg>
